<svg width="188" height="129" viewBox="0 0 188 129" fill="none" xmlns="http://www.w3.org/2000/svg">
<g clip-path="url(#clip0_4121_285)">
<g clip-path="url(#clip1_4121_285)">
<path d="M67.8196 100.782C43.5069 100.782 23.8007 91.14 23.8007 79.248V95.112C23.8007 107.004 43.5069 116.64 67.8196 116.64C92.1322 116.64 111.839 106.998 111.839 95.112V79.248C111.839 91.14 92.1322 100.776 67.8196 100.776V100.782Z" fill="white" stroke="black" stroke-width="1.56" stroke-miterlimit="10"/>
<path d="M67.7329 100.691C92.0439 100.691 111.752 91.0524 111.752 79.1628C111.752 67.2733 92.0439 57.6348 67.7329 57.6348C43.4219 57.6348 23.714 67.2733 23.714 79.1628C23.714 91.0524 43.4219 100.691 67.7329 100.691Z" fill="white" stroke="black" stroke-width="1.56" stroke-miterlimit="10"/>
<path d="M88.1023 79.3291L71.2279 91.7049L79.0672 79.3291L71.2279 67.0879L88.1023 79.3291Z" stroke="black" stroke-width="1.56"/>
<path d="M78.9343 79.3281H87.8366" stroke="black" stroke-width="1.56"/>
<path d="M47.7275 79.3281H74.7" stroke="black" stroke-width="1.56"/>
<path d="M67.2592 91.5703L62.2102 79.3291L67.2592 67.3569" stroke="black" stroke-width="1.56"/>
<path d="M67.2591 91.5706L47.4615 79.3294L67.2591 67.2227L74.9655 79.3294L67.2591 91.5706Z" stroke="black" stroke-width="1.56"/>
<path d="M67.8196 100.782C43.5069 100.782 23.8007 91.14 23.8007 79.248V95.112C23.8007 107.004 43.5069 116.64 67.8196 116.64C92.1322 116.64 111.838 106.998 111.838 95.112V79.248C111.838 91.14 92.1322 100.776 67.8196 100.776V100.782Z" stroke="black" stroke-width="1.56" stroke-miterlimit="10"/>
<path d="M35.4807 93.8477V110.133" stroke="black" stroke-width="1.56"/>
<path d="M56.875 100.705V116.134" stroke="black" stroke-width="1.56"/>
<path d="M78.2693 99.8477V115.276" stroke="black" stroke-width="1.56"/>
<path d="M99.6635 93.8477V109.276" stroke="black" stroke-width="1.56"/>
<path d="M60.8196 83.782C36.5069 83.782 16.8007 74.14 16.8007 62.248V78.112C16.8007 90.004 36.5069 99.64 60.8196 99.64C85.1322 99.64 104.839 89.998 104.839 78.112V62.248C104.839 74.14 85.1322 83.7761 60.8196 83.7761V83.782Z" fill="white" stroke="black" stroke-width="1.56" stroke-miterlimit="10"/>
<path d="M60.7329 83.6908C85.0439 83.6908 104.752 74.0524 104.752 62.1628C104.752 50.2733 85.0439 40.6348 60.7329 40.6348C36.4219 40.6348 16.714 50.2733 16.714 62.1628C16.714 74.0524 36.4219 83.6908 60.7329 83.6908Z" fill="white" stroke="black" stroke-width="1.56" stroke-miterlimit="10"/>
<path d="M81.1023 62.3291L64.2279 74.7049L72.0672 62.3291L64.2279 50.0879L81.1023 62.3291Z" stroke="black" stroke-width="1.56"/>
<path d="M71.9343 62.3281H80.8366" stroke="black" stroke-width="1.56"/>
<path d="M40.7275 62.3281H67.7" stroke="black" stroke-width="1.56"/>
<path d="M60.2592 74.5703L55.2102 62.3291L60.2592 50.3569" stroke="black" stroke-width="1.56"/>
<path d="M60.2591 74.5706L40.4615 62.3294L60.2591 50.2227L67.9655 62.3294L60.2591 74.5706Z" stroke="black" stroke-width="1.56"/>
<path d="M60.8196 83.782C36.5069 83.782 16.8007 74.14 16.8007 62.248V78.112C16.8007 90.004 36.5069 99.64 60.8196 99.64C85.1322 99.64 104.838 89.998 104.838 78.112V62.248C104.838 74.14 85.1322 83.7761 60.8196 83.7761V83.782Z" stroke="black" stroke-width="1.56" stroke-miterlimit="10"/>
<path d="M28.4807 76.8477V93.1334" stroke="black" stroke-width="1.56"/>
<path d="M49.875 83.7051V99.1336" stroke="black" stroke-width="1.56"/>
<path d="M71.2693 82.8477V98.2763" stroke="black" stroke-width="1.56"/>
<path d="M92.6635 76.8477V92.2763" stroke="black" stroke-width="1.56"/>
<path d="M67.8196 63.782C43.5069 63.782 23.8007 54.14 23.8007 42.248V58.112C23.8007 70.004 43.5069 79.64 67.8196 79.64C92.1322 79.64 111.839 69.998 111.839 58.112V42.248C111.839 54.14 92.1322 63.776 67.8196 63.776V63.782Z" fill="white" stroke="black" stroke-width="1.56" stroke-miterlimit="10"/>
<path d="M67.7329 63.6908C92.0439 63.6908 111.752 54.0524 111.752 42.1628C111.752 30.2733 92.0439 20.6348 67.7329 20.6348C43.4219 20.6348 23.714 30.2733 23.714 42.1628C23.714 54.0524 43.4219 63.6908 67.7329 63.6908Z" fill="white" stroke="black" stroke-width="1.56" stroke-miterlimit="10"/>
<path d="M95.8042 41.471L72.5341 53.8475L83.3446 41.471L72.5341 29.229L95.8042 41.471Z" stroke="white" stroke-width="1.56"/>
<path d="M83.1611 41.4707H95.4375" stroke="white" stroke-width="1.56"/>
<path d="M67.0608 53.7108L39.7596 41.4688L67.0608 29.3613L77.6881 41.4688L67.0608 53.7108Z" stroke="white" stroke-width="1.56"/>
<path d="M40.1263 41.4707H77.3219" stroke="white" stroke-width="1.56"/>
<path d="M67.0609 53.7108L60.0981 41.4688L67.0609 29.4958" stroke="white" stroke-width="1.56"/>
<path d="M67.8196 63.782C43.5069 63.782 23.8007 54.14 23.8007 42.248V58.112C23.8007 70.004 43.5069 79.64 67.8196 79.64C92.1322 79.64 111.838 69.998 111.838 58.112V42.248C111.838 54.14 92.1322 63.776 67.8196 63.776V63.782Z" stroke="black" stroke-width="1.56" stroke-miterlimit="10"/>
<path d="M35.4807 56.8477V73.1334" stroke="black" stroke-width="1.56"/>
<path d="M56.875 63.7051V79.1336" stroke="black" stroke-width="1.56"/>
<path d="M78.2693 62.8477V78.2763" stroke="black" stroke-width="1.56"/>
<path d="M99.6635 56.8477V72.2763" stroke="black" stroke-width="1.56"/>
<path d="M5.50003 32.6399C7.83067 32.6399 9.72003 30.7506 9.72003 28.42C9.72003 26.0893 7.83067 24.2 5.50003 24.2C3.16939 24.2 1.28003 26.0893 1.28003 28.42C1.28003 30.7506 3.16939 32.6399 5.50003 32.6399Z" fill="black" stroke="black" stroke-width="1.56"/>
<path d="M137.103 1.42114L128.5 7.53709L134.265 15.7658L142.868 9.64982L137.103 1.42114Z" fill="#F4A019"/>
<path d="M14.4496 126.688L9.56982 119.723L16.9189 114.499L21.7987 121.464L14.4496 126.688Z" stroke="black" stroke-width="1.56"/>
<path d="M128.516 78.8107C140.642 99.813 158.785 112.039 169.04 106.119C179.295 100.198 177.779 78.3722 165.653 57.3698C153.527 36.3675 135.384 24.1414 125.129 30.0621C114.874 35.9828 116.391 57.8083 128.516 78.8107Z" fill="#6166E4" stroke="black" stroke-width="1.56" stroke-miterlimit="10"/>
<path fill-rule="evenodd" clip-rule="evenodd" d="M135.392 66.3799C138.762 76.3325 147.041 84.8411 153.774 85.2416C153.877 85.2477 153.978 85.2655 154.069 85.3118C154.373 85.4656 154.736 85.7653 154.912 86.0671L155.859 87.689C155.94 87.8283 155.996 87.925 156.03 88.0134C156.073 88.1264 156.094 88.2481 156.127 88.3646C156.231 88.7338 156.141 89.0037 155.879 89.009C155.81 89.0104 155.742 88.9994 155.673 88.9993C150.984 88.9938 145.438 85.6515 140.564 79.8885C132.333 70.0944 128.74 56.5476 132.49 49.4092C132.549 49.297 132.572 49.1343 132.662 49.0455C132.732 48.9761 132.815 48.9577 132.911 48.9744C133.18 49.021 133.449 49.276 133.678 49.6684L134.624 51.2903C134.943 51.8358 135.031 52.2423 134.946 52.607C134.935 52.6551 134.916 52.7006 134.896 52.7455C133.385 56.0438 133.501 60.9774 135.392 66.3799ZM139.189 46.0375C139.146 45.9244 139.125 45.8028 139.092 45.6863C138.987 45.3153 139.079 45.0445 139.344 45.0418C139.41 45.0411 139.476 45.0518 139.542 45.0524C144.173 45.0927 149.781 48.3991 154.721 54.2764C162.952 64.0705 166.545 77.6174 162.795 84.7557C162.736 84.8679 162.714 85.0307 162.624 85.1195C162.553 85.1888 162.471 85.2072 162.374 85.1905C162.105 85.144 161.836 84.889 161.607 84.4965L160.661 82.8747C160.343 82.3292 160.254 81.9227 160.34 81.5579C160.351 81.5099 160.369 81.4643 160.39 81.4195C161.901 78.1211 161.785 73.1875 159.894 67.7851C156.523 57.8325 148.245 49.3239 141.511 48.9233C141.409 48.9172 141.308 48.8996 141.216 48.853C140.911 48.6974 140.54 48.384 140.307 47.9838L139.36 46.3619C139.279 46.2226 139.223 46.1258 139.189 46.0375ZM146.681 64.9993C149.634 63.9864 151.751 64.5781 154.113 68.6261C155.742 71.4169 156.052 74.2597 155.01 76.0586C154.79 76.4385 154.73 76.9122 154.95 77.2894L156.2 79.4319C156.476 80.0467 156.492 80.5076 156.242 80.6596L155.459 81.137C155.359 81.1976 155.25 81.2472 155.134 81.2418C154.815 81.227 154.501 80.9996 154.272 80.6072L153.037 78.4915C152.809 78.1015 152.351 77.929 151.904 77.9731C149.799 78.1808 147.847 76.7409 146.113 74.288L146.045 74.1714C145.774 73.7077 145.758 73.2469 146.008 73.0948L147.066 72.4503C147.252 72.3365 147.573 72.4532 147.907 72.8786C149.106 74.5001 150.408 75.4303 152.026 74.4444C153.209 73.7234 153.338 71.921 152.258 70.0691C151.177 68.2173 150.212 67.8646 148.132 68.3494C145.18 69.3651 143.058 68.6186 140.83 64.801C139.338 62.2432 139.035 59.5754 140.088 57.8846C140.332 57.4939 140.411 56.9954 140.18 56.5997L139.021 54.6128C138.745 53.998 138.729 53.5371 138.979 53.3851L139.762 52.9077C139.862 52.8471 139.971 52.7975 140.087 52.8029C140.406 52.8177 140.72 53.0451 140.949 53.4375L142.136 55.4719C142.385 55.8986 142.913 56.0562 143.404 56.0497C144.875 56.0303 146.691 57.2538 148.138 59.2492L148.206 59.3658C148.476 59.8294 148.492 60.2903 148.242 60.4423L147.246 61.0495C147.059 61.1633 146.738 61.0467 146.473 60.7378C145.15 59.1919 144.122 58.8774 143.001 59.5602C141.757 60.3185 141.741 61.7393 142.686 63.358C143.63 64.9766 144.543 65.6736 146.681 64.9993Z" fill="black"/>
<mask id="mask0_4121_285" style="mask-type:luminance" maskUnits="userSpaceOnUse" x="131" y="45" width="34" height="45">
<path fill-rule="evenodd" clip-rule="evenodd" d="M135.392 66.3799C138.762 76.3325 147.041 84.8411 153.774 85.2416C153.877 85.2477 153.978 85.2655 154.069 85.3118C154.373 85.4656 154.736 85.7653 154.912 86.0671L155.859 87.689C155.94 87.8283 155.996 87.925 156.03 88.0134C156.073 88.1264 156.094 88.2481 156.127 88.3646C156.231 88.7338 156.141 89.0037 155.879 89.009C155.81 89.0104 155.742 88.9994 155.673 88.9993C150.984 88.9938 145.438 85.6515 140.564 79.8885C132.333 70.0944 128.74 56.5476 132.49 49.4092C132.549 49.297 132.572 49.1343 132.662 49.0455C132.732 48.9761 132.815 48.9577 132.911 48.9744C133.18 49.021 133.449 49.276 133.678 49.6684L134.624 51.2903C134.943 51.8358 135.031 52.2423 134.946 52.607C134.935 52.6551 134.916 52.7006 134.896 52.7455C133.385 56.0438 133.501 60.9774 135.392 66.3799ZM139.189 46.0375C139.146 45.9244 139.125 45.8028 139.092 45.6863C138.987 45.3153 139.079 45.0445 139.344 45.0418C139.41 45.0411 139.476 45.0518 139.542 45.0524C144.173 45.0927 149.781 48.3991 154.721 54.2764C162.952 64.0705 166.545 77.6174 162.795 84.7557C162.736 84.8679 162.714 85.0307 162.624 85.1195C162.553 85.1888 162.471 85.2072 162.374 85.1905C162.105 85.144 161.836 84.889 161.607 84.4965L160.661 82.8747C160.343 82.3292 160.254 81.9227 160.34 81.5579C160.351 81.5099 160.369 81.4643 160.39 81.4195C161.901 78.1211 161.785 73.1875 159.894 67.7851C156.523 57.8325 148.245 49.3239 141.511 48.9233C141.409 48.9172 141.308 48.8996 141.216 48.853C140.911 48.6974 140.54 48.384 140.307 47.9838L139.36 46.3619C139.279 46.2226 139.223 46.1258 139.189 46.0375ZM146.681 64.9993C149.634 63.9864 151.751 64.5781 154.113 68.6261C155.742 71.4169 156.052 74.2597 155.01 76.0586C154.79 76.4385 154.73 76.9122 154.95 77.2894L156.2 79.4319C156.476 80.0467 156.492 80.5076 156.242 80.6596L155.459 81.137C155.359 81.1976 155.25 81.2472 155.134 81.2418C154.815 81.227 154.501 80.9996 154.272 80.6072L153.037 78.4915C152.809 78.1015 152.351 77.929 151.904 77.9731C149.799 78.1808 147.847 76.7409 146.113 74.288L146.045 74.1714C145.774 73.7077 145.758 73.2469 146.008 73.0948L147.066 72.4503C147.252 72.3365 147.573 72.4532 147.907 72.8786C149.106 74.5001 150.408 75.4303 152.026 74.4444C153.209 73.7234 153.338 71.921 152.258 70.0691C151.177 68.2173 150.212 67.8646 148.132 68.3494C145.18 69.3651 143.058 68.6186 140.83 64.801C139.338 62.2432 139.035 59.5754 140.088 57.8846C140.332 57.4939 140.411 56.9954 140.18 56.5997L139.021 54.6128C138.745 53.998 138.729 53.5371 138.979 53.3851L139.762 52.9077C139.862 52.8471 139.971 52.7975 140.087 52.8029C140.406 52.8177 140.72 53.0451 140.949 53.4375L142.136 55.4719C142.385 55.8986 142.913 56.0562 143.404 56.0497C144.875 56.0303 146.691 57.2538 148.138 59.2492L148.206 59.3658C148.476 59.8294 148.492 60.2903 148.242 60.4423L147.246 61.0495C147.059 61.1633 146.738 61.0467 146.473 60.7378C145.15 59.1919 144.122 58.8774 143.001 59.5602C141.757 60.3185 141.741 61.7393 142.686 63.358C143.63 64.9766 144.543 65.6736 146.681 64.9993Z" fill="white"/>
</mask>
<g mask="url(#mask0_4121_285)">
<path d="M135.392 66.3799L135.863 66.2146L135.861 66.2097L135.392 66.3799ZM140.564 79.8885L140.185 80.2153L140.186 80.2164L140.564 79.8885ZM159.894 67.7851L159.423 67.9504L159.425 67.9552L159.894 67.7851ZM146.681 64.9993L146.827 65.4792L146.838 65.4752L146.681 64.9993ZM156.2 79.4319L156.653 79.2222L156.642 79.1977L156.629 79.1747L156.2 79.4319ZM146.113 74.288L145.684 74.5452L145.695 74.5641L145.707 74.5818L146.113 74.288ZM147.907 72.8786L148.306 72.576L148.297 72.5651L147.907 72.8786ZM148.132 68.3494L148.023 67.8597L147.998 67.8654L147.974 67.8737L148.132 68.3494ZM139.021 54.6128L138.567 54.8226L138.578 54.847L138.592 54.87L139.021 54.6128ZM148.138 59.2492L148.566 58.9919L148.554 58.9705L148.539 58.9505L148.138 59.2492ZM153.806 84.7398C150.616 84.55 146.972 82.4213 143.677 79.039C140.395 75.6697 137.523 71.1184 135.863 66.2146L134.921 66.5452C136.631 71.594 139.583 76.2732 142.967 79.7465C146.337 83.2068 150.199 85.5327 153.742 85.7435L153.806 84.7398ZM155.341 85.8099C155.105 85.4043 154.658 85.0464 154.294 84.862L153.845 85.7616C154.088 85.8848 154.368 86.1262 154.484 86.3243L155.341 85.8099ZM156.287 87.4317L155.341 85.8099L154.484 86.3243L155.43 87.9462L156.287 87.4317ZM156.494 87.8312C156.443 87.6948 156.36 87.557 156.287 87.4317L155.43 87.9462C155.519 88.0996 155.55 88.1553 155.565 88.1956L156.494 87.8312ZM155.886 89.5116C156.038 89.5085 156.195 89.4652 156.332 89.3651C156.469 89.2656 156.556 89.132 156.606 88.9971C156.701 88.7417 156.672 88.4613 156.605 88.2239L155.649 88.5053C155.666 88.5648 155.671 88.6089 155.672 88.6368C155.673 88.666 155.668 88.6671 155.675 88.6494C155.682 88.6288 155.704 88.5868 155.753 88.551C155.803 88.5145 155.851 88.5069 155.872 88.5065L155.886 89.5116ZM140.186 80.2164C145.097 86.0245 150.768 89.4962 155.669 89.502L155.676 88.4966C151.2 88.4913 145.779 85.2785 140.943 79.5606L140.186 80.2164ZM132.052 49.1755C130.091 52.9073 130.081 58.2278 131.554 63.7857C133.031 69.3614 136.022 75.2627 140.185 80.2153L140.944 79.5618C136.875 74.7203 133.954 68.9511 132.515 63.5203C131.071 58.0717 131.14 53.0495 132.929 49.643L132.052 49.1755ZM134.107 49.4112C133.86 48.9879 133.491 48.5643 132.998 48.4789L132.825 49.4699C132.869 49.4776 133.039 49.564 133.25 49.9256L134.107 49.4112ZM135.053 51.0331L134.107 49.4112L133.25 49.9256L134.196 51.5475L135.053 51.0331ZM135.43 52.7202C135.558 52.1748 135.402 51.6304 135.053 51.0331L134.196 51.5475C134.484 52.0412 134.505 52.3098 134.462 52.4938L135.43 52.7202ZM135.861 66.2097C133.992 60.8704 133.913 56.0855 135.347 52.9545L134.445 52.5365C132.857 56.0022 133.01 61.0845 134.923 66.55L135.861 66.2097ZM139.342 44.5391C139.189 44.5407 139.032 44.5823 138.893 44.6815C138.754 44.7802 138.666 44.914 138.615 45.0498C138.518 45.3064 138.546 45.5886 138.614 45.827L139.57 45.5456C139.553 45.4857 139.548 45.4416 139.547 45.4137C139.546 45.3845 139.551 45.3838 139.544 45.4021C139.536 45.4234 139.513 45.4658 139.464 45.5014C139.413 45.5375 139.366 45.5442 139.346 45.5444L139.342 44.5391ZM155.101 53.9497C150.12 48.0241 144.388 44.5919 139.549 44.5497L139.535 45.555C143.957 45.5936 149.441 48.7741 154.341 54.6032L155.101 53.9497ZM163.234 84.9894C165.195 81.2576 165.204 75.9372 163.732 70.3792C162.254 64.8036 159.263 58.9023 155.101 53.9497L154.341 54.6032C158.41 59.4447 161.332 65.2138 162.771 70.6447C164.215 76.0933 164.146 81.1154 162.356 84.522L163.234 84.9894ZM161.179 84.7537C161.426 85.1771 161.794 85.6006 162.287 85.686L162.461 84.6951C162.416 84.6874 162.247 84.6009 162.036 84.2393L161.179 84.7537ZM160.232 83.1319L161.179 84.7537L162.036 84.2393L161.09 82.6175L160.232 83.1319ZM159.856 81.4447C159.728 81.9902 159.884 82.5346 160.232 83.1319L161.09 82.6175C160.802 82.1238 160.78 81.8552 160.823 81.6711L159.856 81.4447ZM159.425 67.9552C161.294 73.2945 161.373 78.0795 159.939 81.2104L160.841 81.6285C162.428 78.1627 162.276 73.0805 160.363 67.6149L159.425 67.9552ZM141.479 49.4251C144.669 49.6149 148.314 51.7437 151.608 55.1259C154.89 58.4952 157.762 63.0466 159.423 67.9504L160.364 67.6198C158.655 62.571 155.702 57.8917 152.319 54.4184C148.948 50.9581 145.087 48.6323 141.543 48.4215L141.479 49.4251ZM139.878 48.241C140.164 48.7307 140.608 49.1074 140.99 49.3021L141.442 48.4039C141.214 48.2874 140.917 48.0372 140.735 47.7266L139.878 48.241ZM138.932 46.6191L139.878 48.241L140.735 47.7266L139.789 46.1047L138.932 46.6191ZM138.725 46.2197C138.776 46.3561 138.859 46.4939 138.932 46.6191L139.789 46.1047C139.7 45.9513 139.669 45.8956 139.654 45.8553L138.725 46.2197ZM154.542 68.3689C153.341 66.3102 152.154 65.0434 150.82 64.4541C149.468 63.8567 148.06 63.9964 146.524 64.5234L146.838 65.4752C148.255 64.9893 149.382 64.9185 150.417 65.3757C151.471 65.8409 152.524 66.894 153.685 68.8834L154.542 68.3689ZM155.439 76.3107C156.614 74.2828 156.212 71.2298 154.542 68.3689L153.685 68.8834C155.272 71.6041 155.491 74.2367 154.582 75.8065L155.439 76.3107ZM156.629 79.1747L155.379 77.0322L154.521 77.5467L155.772 79.6892L156.629 79.1747ZM156.497 81.0897C156.848 80.8761 156.925 80.492 156.915 80.199C156.905 79.8971 156.805 79.5607 156.653 79.2222L155.747 79.6417C155.871 79.9179 155.917 80.1194 155.921 80.2396C155.926 80.3688 155.886 80.2911 155.987 80.2295L156.497 81.0897ZM155.714 81.5671L156.497 81.0897L155.987 80.2295L155.204 80.7069L155.714 81.5671ZM153.843 80.8644C154.121 81.3418 154.563 81.7187 155.109 81.744L155.16 80.7397C155.066 80.7353 154.88 80.6574 154.7 80.3499L153.843 80.8644ZM152.608 78.7487L153.843 80.8644L154.7 80.3499L153.466 78.2342L152.608 78.7487ZM145.707 74.5818C147.467 77.0713 149.567 78.7084 151.949 78.4734L151.858 77.4728C150.03 77.6531 148.226 76.4105 146.518 73.9942L145.707 74.5818ZM145.616 74.4286L145.684 74.5452L146.541 74.0307L146.473 73.9141L145.616 74.4286ZM145.753 72.6647C145.409 72.8744 145.324 73.2512 145.334 73.5366C145.344 73.8323 145.45 74.1443 145.616 74.4286L146.473 73.9141C146.369 73.7348 146.331 73.5846 146.328 73.4959C146.325 73.397 146.357 73.4673 146.263 73.5249L145.753 72.6647ZM146.811 72.0202L145.753 72.6647L146.263 73.5249L147.32 72.8804L146.811 72.0202ZM148.297 72.5651C148.101 72.3141 147.88 72.1173 147.643 72.006C147.407 71.8954 147.094 71.8475 146.811 72.0202L147.32 72.8804C147.224 72.9393 147.165 72.8928 147.22 72.9185C147.273 72.9434 147.38 73.0177 147.516 73.1921L148.297 72.5651ZM151.771 74.0143C151.096 74.4258 150.539 74.4215 150.018 74.1816C149.455 73.9226 148.891 73.3673 148.306 72.576L147.508 73.1811C148.122 74.0112 148.808 74.7319 149.601 75.0969C150.435 75.481 151.339 75.4488 152.281 74.8745L151.771 74.0143ZM151.829 70.3264C152.332 71.1889 152.532 72.0045 152.495 72.6541C152.457 73.2955 152.194 73.7568 151.771 74.0143L152.281 74.8745C153.042 74.411 153.435 73.6105 153.487 72.7075C153.54 71.8128 153.264 70.8012 152.687 69.8119L151.829 70.3264ZM148.241 68.8392C149.254 68.6031 149.89 68.5994 150.382 68.7995C150.867 68.9971 151.309 69.4341 151.829 70.3264L152.687 69.8119C152.127 68.8523 151.545 68.187 150.758 67.8666C149.976 67.5485 149.09 67.6109 148.023 67.8597L148.241 68.8392ZM140.401 65.0583C141.536 67.0034 142.689 68.2474 144.003 68.8461C145.335 69.4534 146.743 69.3572 148.289 68.8252L147.974 67.8737C146.569 68.3573 145.44 68.3957 144.416 67.9292C143.374 67.4542 142.351 66.4162 141.259 64.5438L140.401 65.0583ZM139.668 57.6185C138.468 59.5439 138.869 62.4321 140.401 65.0583L141.259 64.5438C139.806 62.0542 139.601 59.6068 140.509 58.1507L139.668 57.6185ZM138.592 54.87L139.751 56.857L140.609 56.3425L139.449 54.3555L138.592 54.87ZM138.724 52.955C138.373 53.1687 138.296 53.5527 138.306 53.8457C138.316 54.1476 138.416 54.484 138.567 54.8226L139.474 54.403C139.35 54.1268 139.304 53.9253 139.3 53.8051C139.295 53.6759 139.335 53.7536 139.234 53.8152L138.724 52.955ZM139.507 52.4776L138.724 52.955L139.234 53.8152L140.017 53.3378L139.507 52.4776ZM141.378 53.1803C141.099 52.7029 140.658 52.326 140.112 52.3007L140.061 53.305C140.155 53.3094 140.341 53.3873 140.521 53.6948L141.378 53.1803ZM142.565 55.2146L141.378 53.1803L140.521 53.6948L141.708 55.7291L142.565 55.2146ZM148.539 58.9505C147.788 57.9139 146.932 57.0657 146.058 56.4754C145.189 55.8886 144.27 55.5356 143.4 55.5471L143.408 56.5524C144.01 56.5444 144.734 56.7934 145.502 57.3124C146.266 57.8278 147.041 58.589 147.736 59.5478L148.539 58.9505ZM148.634 59.1085L148.566 58.9919L147.709 59.5064L147.777 59.623L148.634 59.1085ZM148.497 60.8724C148.842 60.6627 148.926 60.286 148.916 60.0006C148.906 59.7048 148.8 59.3929 148.634 59.1085L147.777 59.623C147.882 59.8023 147.919 59.9526 147.922 60.0412C147.925 60.1401 147.893 60.0698 147.988 60.0122L148.497 60.8724ZM147.501 61.4796L148.497 60.8724L147.988 60.0122L146.991 60.6194L147.501 61.4796ZM146.096 61.068C146.27 61.2705 146.48 61.4324 146.707 61.5211C146.925 61.6063 147.227 61.6466 147.501 61.4796L146.991 60.6194C147.078 60.5662 147.127 60.6051 147.071 60.5832C147.024 60.5648 146.94 60.5133 146.849 60.407L146.096 61.068ZM143.256 59.9903C143.716 59.7097 144.103 59.6584 144.503 59.791C144.939 59.9354 145.455 60.3192 146.096 61.068L146.85 60.4077C146.167 59.6105 145.508 59.0642 144.818 58.8355C144.093 58.5951 143.406 58.7279 142.746 59.1301L143.256 59.9903ZM143.114 63.1007C142.669 62.3377 142.486 61.6795 142.519 61.1657C142.549 60.683 142.771 60.286 143.256 59.9903L142.746 59.1301C141.987 59.5927 141.578 60.2853 141.526 61.1072C141.476 61.8981 141.758 62.7596 142.257 63.6152L143.114 63.1007ZM146.535 64.5195C145.527 64.8376 144.906 64.8007 144.45 64.5835C143.977 64.3583 143.576 63.8919 143.114 63.1007L142.257 63.6152C142.74 64.4427 143.267 65.1341 144.022 65.4934C144.793 65.8608 145.697 65.8353 146.827 65.4792L146.535 64.5195ZM140.509 58.1507C140.816 57.6574 140.964 56.9505 140.609 56.3425L139.751 56.857C139.858 57.0402 139.847 57.3303 139.668 57.6185L140.509 58.1507ZM155.204 80.7069C155.17 80.7274 155.15 80.7364 155.14 80.7401C155.131 80.7433 155.14 80.7387 155.16 80.7397L155.109 81.744C155.376 81.7563 155.591 81.6418 155.714 81.5671L155.204 80.7069ZM154.582 75.8065C154.3 76.2931 154.184 76.9678 154.521 77.5467L155.379 77.0322C155.276 76.8565 155.281 76.5839 155.439 76.3107L154.582 75.8065ZM140.017 53.3378C140.051 53.3173 140.071 53.3083 140.081 53.3046C140.09 53.3014 140.081 53.306 140.061 53.305L140.112 52.3007C139.845 52.2884 139.63 52.4029 139.507 52.4776L140.017 53.3378ZM141.543 48.4215C141.474 48.4174 141.449 48.4071 141.442 48.4039L140.99 49.3021C141.167 49.3921 141.344 49.4171 141.479 49.4251L141.543 48.4215ZM138.614 45.827C138.628 45.8761 138.636 45.9162 138.655 45.9897C138.671 46.0538 138.693 46.1352 138.725 46.2197L139.654 45.8553C139.643 45.8267 139.632 45.7908 139.619 45.7367C139.608 45.692 139.589 45.613 139.57 45.5456L138.614 45.827ZM139.346 45.5444C139.354 45.5444 139.366 45.5449 139.401 45.5477C139.428 45.5499 139.48 45.5545 139.535 45.555L139.549 44.5497C139.537 44.5496 139.524 44.5486 139.485 44.5455C139.454 44.543 139.4 44.5385 139.342 44.5391L139.346 45.5444ZM160.823 81.6711C160.823 81.6719 160.824 81.6692 160.827 81.6619C160.829 81.6544 160.834 81.644 160.841 81.6285L159.939 81.2104C159.912 81.2678 159.878 81.3487 159.856 81.4447L160.823 81.6711ZM153.466 78.2342C153.117 77.6359 152.445 77.4149 151.858 77.4728L151.949 78.4734C152.257 78.4431 152.502 78.5672 152.608 78.7487L153.466 78.2342ZM133.008 49.4042C132.986 49.4264 132.949 49.4508 132.902 49.4634C132.859 49.475 132.829 49.4707 132.825 49.4699L132.998 48.4789C132.777 48.4407 132.522 48.4826 132.316 48.6867L133.008 49.4042ZM132.929 49.643C132.96 49.5845 132.982 49.528 132.996 49.4887C133.003 49.4685 133.01 49.4483 133.016 49.4328C133.022 49.416 133.026 49.4033 133.03 49.3915C133.039 49.3671 133.043 49.3597 133.043 49.36C133.043 49.3608 133.033 49.3801 133.008 49.4042L132.316 48.6867C132.184 48.8163 132.125 48.9742 132.099 49.0456C132.091 49.0668 132.084 49.0873 132.078 49.1036C132.072 49.1213 132.067 49.1341 132.063 49.1464C132.054 49.1719 132.05 49.1779 132.052 49.1755L132.929 49.643ZM162.356 84.522C162.326 84.5804 162.304 84.6369 162.29 84.6762C162.282 84.6964 162.275 84.7166 162.27 84.7321C162.264 84.7489 162.259 84.7617 162.255 84.7734C162.246 84.7978 162.242 84.8053 162.242 84.805C162.243 84.8041 162.253 84.7848 162.277 84.7608L162.97 85.4782C163.101 85.3486 163.161 85.1907 163.187 85.1194C163.195 85.0982 163.202 85.0776 163.208 85.0613C163.214 85.0436 163.218 85.0308 163.223 85.0186C163.232 84.993 163.235 84.9871 163.234 84.9894L162.356 84.522ZM155.565 88.1956C155.576 88.2242 155.587 88.2601 155.6 88.3142C155.611 88.3589 155.63 88.4379 155.649 88.5053L156.605 88.2239C156.591 88.1748 156.583 88.1347 156.564 88.0612C156.548 87.9971 156.526 87.9157 156.494 87.8312L155.565 88.1956ZM162.277 84.7608C162.3 84.7385 162.337 84.7142 162.383 84.7015C162.427 84.6899 162.456 84.6943 162.461 84.6951L162.287 85.686C162.508 85.7243 162.763 85.6823 162.97 85.4782L162.277 84.7608ZM155.872 88.5065C155.864 88.5066 155.852 88.5061 155.816 88.5035C155.787 88.5013 155.733 88.4967 155.676 88.4966L155.669 89.502C155.682 89.502 155.696 89.503 155.736 89.506C155.769 89.5085 155.825 89.5129 155.886 89.5116L155.872 88.5065ZM134.462 52.4938C134.462 52.4931 134.462 52.4958 134.459 52.503C134.456 52.5105 134.452 52.521 134.445 52.5365L135.347 52.9545C135.373 52.8972 135.407 52.8163 135.43 52.7202L134.462 52.4938ZM141.708 55.7291C142.09 56.3845 142.845 56.5598 143.408 56.5524L143.4 55.5471C142.98 55.5527 142.681 55.4128 142.565 55.2146L141.708 55.7291ZM153.742 85.7435C153.811 85.7476 153.837 85.7578 153.845 85.7616L154.294 84.862C154.118 84.7731 153.942 84.7479 153.806 84.7398L153.742 85.7435Z" fill="#6166E4"/>
</g>
<path d="M128.665 78.7672C116.538 57.7634 115.026 35.9375 125.283 30.0156L111.6 37.9155C101.343 43.8374 102.861 65.6603 114.987 86.6641C127.114 107.668 145.259 119.891 155.511 113.972L169.194 106.072C158.937 111.994 140.797 99.768 128.67 78.7642L128.665 78.7672Z" fill="white" stroke="black" stroke-width="1.56" stroke-miterlimit="10"/>
<path d="M117.664 47.377L103.618 55.4869" stroke="black" stroke-width="1.56"/>
<path d="M123.275 69.2754L109.967 76.9584" stroke="black" stroke-width="1.56"/>
<path d="M133.831 87.3301L120.524 95.0131" stroke="black" stroke-width="1.56"/>
<path d="M149.677 102.826L136.37 110.509" stroke="black" stroke-width="1.56"/>
</g>
</g>
<defs>
<clipPath id="clip0_4121_285">
<rect width="187" height="128" fill="white" transform="translate(0.5 0.919922)"/>
</clipPath>
<clipPath id="clip1_4121_285">
<rect width="187" height="127" fill="white" transform="translate(0.5 1.41992)"/>
</clipPath>
</defs>
</svg>
