<?xml version="1.0" encoding="UTF-8"?>
<!DOCTYPE svg PUBLIC "-//W3C//DTD SVG 1.1//EN" "http://www.w3.org/Graphics/SVG/1.1/DTD/svg11.dtd">
<svg xmlns="http://www.w3.org/2000/svg" version="1.1" width="500px" height="500px" style="shape-rendering:geometricPrecision; text-rendering:geometricPrecision; image-rendering:optimizeQuality; fill-rule:evenodd; clip-rule:evenodd" xmlns:xlink="http://www.w3.org/1999/xlink">
<g><path style="opacity:1" fill="#bfc935" d="M 249.5,56.5 C 271.433,91.9701 283.766,130.637 286.5,172.5C 287.013,204.801 274.679,230.801 249.5,250.5C 249.167,250.333 248.833,250.167 248.5,250C 255.343,233.521 254.51,217.354 246,201.5C 234.257,182.423 219.091,166.59 200.5,154C 227.647,149.853 244.147,134.353 250,107.5C 253.033,90.4818 252.866,73.4818 249.5,56.5 Z"/></g>
<g><path style="opacity:1" fill="#bfca36" d="M 213.5,82.5 C 227.524,81.4279 236.024,87.7613 239,101.5C 240.747,111.02 238.247,119.187 231.5,126C 215.22,132.272 205.053,126.772 201,109.5C 198.949,97.4393 203.115,88.4393 213.5,82.5 Z"/></g>
<g><path style="opacity:1" fill="#fbd738" d="M 340.5,104.5 C 359.642,103.818 366.808,112.818 362,131.5C 355.522,146.325 344.689,151.159 329.5,146C 319.838,136.324 319.004,125.824 327,114.5C 330.802,110.037 335.302,106.703 340.5,104.5 Z"/></g>
<g><path style="opacity:1" fill="#f9d846" d="M 384.5,153.5 C 385.217,149.4 385.384,145.4 385,141.5C 386.011,142.337 387.178,142.67 388.5,142.5C 388.244,140.208 388.577,138.041 389.5,136C 387.893,134.951 387.227,133.451 387.5,131.5C 385.833,131.5 384.167,131.5 382.5,131.5C 387.833,125.331 392.999,118.998 398,112.5C 398.5,113 399,113.5 399.5,114C 395.167,127.511 390.167,140.677 384.5,153.5 Z"/></g>
<g><path style="opacity:1" fill="#449f47" d="M 105.5,123.5 C 142.881,131.521 176.547,147.687 206.5,172C 225.448,187.958 237.282,208.125 242,232.5C 242.667,241.167 242.667,249.833 242,258.5C 241.667,258.833 241.333,259.167 241,259.5C 229.981,237.052 211.814,225.219 186.5,224C 181.333,223.833 176.167,223.667 171,223.5C 160.128,223.784 149.295,224.284 138.5,225C 154.492,204.105 155.658,182.271 142,159.5C 131.958,145.291 119.791,133.291 105.5,123.5 Z"/></g>
<g><path style="opacity:1" fill="#fcd736" d="M 382.5,131.5 C 384.167,131.5 385.833,131.5 387.5,131.5C 387.227,133.451 387.893,134.951 389.5,136C 388.577,138.041 388.244,140.208 388.5,142.5C 387.178,142.67 386.011,142.337 385,141.5C 385.384,145.4 385.217,149.4 384.5,153.5C 373.325,183.829 355.659,209.663 331.5,231C 310.744,247.355 287.41,253.355 261.5,249C 283.469,237.591 295.302,219.424 297,194.5C 297.667,184.167 297.667,173.833 297,163.5C 296.673,158.209 295.84,153.042 294.5,148C 295,147.5 295.5,147 296,146.5C 316.666,161.881 338.166,163.048 360.5,150C 368.61,144.721 375.943,138.554 382.5,131.5 Z"/></g>
<g><path style="opacity:1" fill="#449f47" d="M 108.5,157.5 C 130,156.17 140.5,166.17 140,187.5C 134.62,197.407 126.453,200.907 115.5,198C 99.2142,191.275 94.0475,179.775 100,163.5C 102.671,161.098 105.505,159.098 108.5,157.5 Z"/></g>
<g><path style="opacity:1" fill="#f98c05" d="M 410.5,208.5 C 420.094,207.087 428.26,209.754 435,216.5C 440.87,227.896 438.37,237.063 427.5,244C 416.522,249.168 406.188,248.168 396.5,241C 389.617,232.061 389.95,223.394 397.5,215C 401.657,212.255 405.99,210.088 410.5,208.5 Z"/></g>
<g><path style="opacity:1" fill="#f98c04" d="M 366.5,208.5 C 372.107,238.932 390.44,255.765 421.5,259C 435.572,259.73 449.572,259.397 463.5,258C 424.956,282.136 382.956,294.136 337.5,294C 309.582,291.879 287.248,279.713 270.5,257.5C 270.833,257.167 271.167,256.833 271.5,256.5C 289.019,263.28 306.019,261.78 322.5,252C 339.667,239.999 354.334,225.499 366.5,208.5 Z"/></g>
<g><path style="opacity:1" fill="#0aacbf" d="M 152.5,234.5 C 184.876,230.872 212.709,240.205 236,262.5C 238.181,265.344 240.347,268.178 242.5,271C 242.333,271.5 242.167,272 242,272.5C 226.34,265.711 210.84,266.211 195.5,274C 186.329,278.838 177.996,284.838 170.5,292C 161.585,300.911 153.418,310.411 146,320.5C 141.207,291.707 124.374,274.874 95.5,270C 80.9162,267.942 66.4162,268.442 52,271.5C 51.1667,271.167 50.3333,270.833 49.5,270.5C 81.4346,251.353 115.768,239.353 152.5,234.5 Z"/></g>
<g><path style="opacity:1" fill="#0cabbe" d="M 93.5,281.5 C 104.701,279.835 113.534,283.502 120,292.5C 123.144,307.721 116.977,316.888 101.5,320C 90.3379,321.736 81.8379,317.903 76,308.5C 73.2802,299.326 75.7802,291.826 83.5,286C 86.8932,284.38 90.2265,282.88 93.5,281.5 Z"/></g>
<g><path style="opacity:1" fill="#ee4639" d="M 391.5,328.5 C 392.091,327.849 392.757,327.182 393.5,326.5C 391.833,325.833 390.167,325.167 388.5,324.5C 391.214,322.283 394.214,320.617 397.5,319.5C 397.291,318.914 396.957,318.414 396.5,318C 393.833,317.667 391.167,317.333 388.5,317C 386.606,315.921 386.273,314.587 387.5,313C 385.359,312.116 383.693,312.616 382.5,314.5C 376.135,315.179 369.802,316.012 363.5,317C 361.332,317.41 359.999,318.244 359.5,319.5C 354.209,318.598 348.876,318.265 343.5,318.5C 386.379,313.321 427.045,300.654 465.5,280.5C 463.058,284.489 459.725,288.323 455.5,292C 436.445,308.031 415.112,320.198 391.5,328.5 Z"/></g>
<g><path style="opacity:1" fill="#f24437" d="M 391.5,328.5 C 383.513,331.939 375.18,334.606 366.5,336.5C 359.62,337.603 352.62,338.603 345.5,339.5C 343.036,339.41 340.87,338.743 339,337.5C 336.481,338.88 333.981,340.213 331.5,341.5C 326.171,342.612 320.838,342.612 315.5,341.5C 315.5,340.167 315.5,338.833 315.5,337.5C 303.945,336.626 303.612,338.293 314.5,342.5C 314.167,342.833 313.833,343.167 313.5,343.5C 309.221,344.274 304.887,344.774 300.5,345C 299.584,345.278 298.918,345.778 298.5,346.5C 266.176,347.294 233.843,348.127 201.5,349C 190.448,349.757 179.448,350.923 168.5,352.5C 161.982,353.365 155.982,352.032 150.5,348.5C 145.059,350.751 145.393,351.918 151.5,352C 148.568,354.145 146.068,353.645 144,350.5C 142.303,351.364 141.137,352.697 140.5,354.5C 138.577,355.308 136.577,355.808 134.5,356C 136.863,356.589 137.863,358.089 137.5,360.5C 133.468,359.433 129.468,358.433 125.5,357.5C 125.281,356.325 125.614,355.325 126.5,354.5C 131.661,353.758 135.661,351.258 138.5,347C 142.606,344.748 146.939,343.915 151.5,344.5C 147.288,342.278 147.621,341.111 152.5,341C 151.5,340.667 150.5,340.333 149.5,340C 153.538,338.648 157.205,336.814 160.5,334.5C 189.144,325.908 218.477,321.908 248.5,322.5C 270.526,323.156 292.192,322.489 313.5,320.5C 323.485,319.644 333.485,318.977 343.5,318.5C 348.876,318.265 354.209,318.598 359.5,319.5C 359.999,318.244 361.332,317.41 363.5,317C 369.802,316.012 376.135,315.179 382.5,314.5C 383.693,312.616 385.359,312.116 387.5,313C 386.273,314.587 386.606,315.921 388.5,317C 391.167,317.333 393.833,317.667 396.5,318C 396.957,318.414 397.291,318.914 397.5,319.5C 394.214,320.617 391.214,322.283 388.5,324.5C 390.167,325.167 391.833,325.833 393.5,326.5C 392.757,327.182 392.091,327.849 391.5,328.5 Z"/></g>
<g><path style="opacity:0.806" fill="#da5146" d="M 313.5,320.5 C 292.192,322.489 270.526,323.156 248.5,322.5C 270.002,321.652 291.669,320.985 313.5,320.5 Z"/></g>
<g><path style="opacity:1" fill="#e14a3f" d="M 456.5,341.5 C 456.5,340.5 456.5,339.5 456.5,338.5C 458.433,338.271 460.1,337.438 461.5,336C 461.167,335.667 460.833,335.333 460.5,335C 461.833,334.667 463.167,334.333 464.5,334C 464.043,333.586 463.709,333.086 463.5,332.5C 470.059,331.067 470.059,329.733 463.5,328.5C 469.319,325.673 475.153,322.673 481,319.5C 474.392,328.259 466.226,335.593 456.5,341.5 Z"/></g>
<g><path style="opacity:1" fill="#e64a3d" d="M 366.5,336.5 C 344.362,342.52 321.695,345.854 298.5,346.5C 298.918,345.778 299.584,345.278 300.5,345C 304.887,344.774 309.221,344.274 313.5,343.5C 313.833,343.167 314.167,342.833 314.5,342.5C 303.612,338.293 303.945,336.626 315.5,337.5C 315.5,338.833 315.5,340.167 315.5,341.5C 320.838,342.612 326.171,342.612 331.5,341.5C 333.981,340.213 336.481,338.88 339,337.5C 340.87,338.743 343.036,339.41 345.5,339.5C 352.62,338.603 359.62,337.603 366.5,336.5 Z"/></g>
<g><path style="opacity:1" fill="#eb473a" d="M 463.5,328.5 C 470.059,329.733 470.059,331.067 463.5,332.5C 463.709,333.086 464.043,333.586 464.5,334C 463.167,334.333 461.833,334.667 460.5,335C 460.833,335.333 461.167,335.667 461.5,336C 460.1,337.438 458.433,338.271 456.5,338.5C 456.5,339.5 456.5,340.5 456.5,341.5C 445.698,349.743 434.031,356.743 421.5,362.5C 421.369,361.624 421.702,360.957 422.5,360.5C 425.67,359.083 428.67,357.416 431.5,355.5C 432.833,354.5 432.833,353.5 431.5,352.5C 432.376,351.749 433.376,351.249 434.5,351C 433.663,349.989 433.33,348.822 433.5,347.5C 437.874,348.416 442.208,348.416 446.5,347.5C 446.67,346.178 446.337,345.011 445.5,344C 443.423,343.808 441.423,343.308 439.5,342.5C 440.999,341.096 440.666,340.43 438.5,340.5C 434.104,341.607 430.104,343.44 426.5,346C 427.5,346.833 428.5,347.667 429.5,348.5C 428.5,348.833 427.5,349.167 426.5,349.5C 421.534,348.669 416.534,348.336 411.5,348.5C 429.15,342.836 446.483,336.169 463.5,328.5 Z"/></g>
<g><path style="opacity:0.907" fill="#d84d42" d="M 328.5,360.5 C 307.192,362.489 285.526,363.156 263.5,362.5C 285.001,361.635 306.668,360.968 328.5,360.5 Z"/></g>
<g><path style="opacity:1" fill="#f24437" d="M 421.5,362.5 C 384.916,378.518 346.583,386.684 306.5,387C 271.806,387.196 237.139,388.196 202.5,390C 187.54,391.437 172.873,394.271 158.5,398.5C 151.833,400.167 145.167,401.833 138.5,403.5C 140.259,401.367 140.926,399.034 140.5,396.5C 139.5,395.167 138.5,395.167 137.5,396.5C 135.995,397.842 135.328,399.508 135.5,401.5C 133.194,401.993 130.861,402.326 128.5,402.5C 128.5,401.5 128.5,400.5 128.5,399.5C 129.833,399.5 131.167,399.5 132.5,399.5C 132.5,398.5 132.5,397.5 132.5,396.5C 134.619,396.532 135.952,395.532 136.5,393.5C 153.722,381.565 172.722,373.398 193.5,369C 216.617,364.522 239.95,362.355 263.5,362.5C 285.526,363.156 307.192,362.489 328.5,360.5C 356.569,359.21 384.236,355.21 411.5,348.5C 416.534,348.336 421.534,348.669 426.5,349.5C 427.5,349.167 428.5,348.833 429.5,348.5C 428.5,347.667 427.5,346.833 426.5,346C 430.104,343.44 434.104,341.607 438.5,340.5C 440.666,340.43 440.999,341.096 439.5,342.5C 441.423,343.308 443.423,343.808 445.5,344C 446.337,345.011 446.67,346.178 446.5,347.5C 442.208,348.416 437.874,348.416 433.5,347.5C 433.33,348.822 433.663,349.989 434.5,351C 433.376,351.249 432.376,351.749 431.5,352.5C 432.833,353.5 432.833,354.5 431.5,355.5C 428.67,357.416 425.67,359.083 422.5,360.5C 421.702,360.957 421.369,361.624 421.5,362.5 Z"/></g>
<g><path style="opacity:1" fill="#ed463a" d="M 160.5,334.5 C 157.205,336.814 153.538,338.648 149.5,340C 150.5,340.333 151.5,340.667 152.5,341C 147.621,341.111 147.288,342.278 151.5,344.5C 146.939,343.915 142.606,344.748 138.5,347C 135.661,351.258 131.661,353.758 126.5,354.5C 125.614,355.325 125.281,356.325 125.5,357.5C 129.468,358.433 133.468,359.433 137.5,360.5C 137.863,358.089 136.863,356.589 134.5,356C 136.577,355.808 138.577,355.308 140.5,354.5C 141.137,352.697 142.303,351.364 144,350.5C 146.068,353.645 148.568,354.145 151.5,352C 145.393,351.918 145.059,350.751 150.5,348.5C 155.982,352.032 161.982,353.365 168.5,352.5C 137.452,359.025 109.452,372.025 84.5,391.5C 102.915,363.437 128.248,344.437 160.5,334.5 Z"/></g>
<g><path style="opacity:0.039" fill="#b24d4c" d="M 84.5,391.5 C 83.8333,392.167 83.8333,392.167 84.5,391.5 Z"/></g>
<g><path style="opacity:1" fill="#e9463c" d="M 136.5,393.5 C 135.952,395.532 134.619,396.532 132.5,396.5C 132.5,397.5 132.5,398.5 132.5,399.5C 131.167,399.5 129.833,399.5 128.5,399.5C 128.5,400.5 128.5,401.5 128.5,402.5C 130.861,402.326 133.194,401.993 135.5,401.5C 135.328,399.508 135.995,397.842 137.5,396.5C 138.5,395.167 139.5,395.167 140.5,396.5C 140.926,399.034 140.259,401.367 138.5,403.5C 145.167,401.833 151.833,400.167 158.5,398.5C 136.507,406.079 116.674,417.412 99,432.5C 98.6848,431.092 99.0181,429.759 100,428.5C 109.775,414.223 121.942,402.556 136.5,393.5 Z"/></g>
</svg>
