<?xml version="1.0" encoding="UTF-8"?>
<!DOCTYPE svg PUBLIC "-//W3C//DTD SVG 1.1//EN" "http://www.w3.org/Graphics/SVG/1.1/DTD/svg11.dtd">
<svg xmlns="http://www.w3.org/2000/svg" version="1.1" width="6912px" height="3456px" style="shape-rendering:geometricPrecision; text-rendering:geometricPrecision; image-rendering:optimizeQuality; fill-rule:evenodd; clip-rule:evenodd" xmlns:xlink="http://www.w3.org/1999/xlink">
<g><path style="opacity:1" fill="#000000" d="M -0.5,-0.5 C 165.833,-0.5 332.167,-0.5 498.5,-0.5C 344.389,39.2288 200.055,101.396 65.5,186C 43.3002,200.262 21.3002,214.762 -0.5,229.5C -0.5,152.833 -0.5,76.1667 -0.5,-0.5 Z"/></g>
<g><path style="opacity:1" fill="#fefefe" d="M 498.5,-0.5 C 694.167,-0.5 889.833,-0.5 1085.5,-0.5C 1216.08,37.1096 1333.08,99.2763 1436.5,186C 1505.27,245.095 1567.43,310.262 1623,381.5C 1687.64,467.529 1745.97,557.863 1798,652.5C 1817.92,689.341 1837.59,726.341 1857,763.5C 1916.38,883.66 1975.38,1003.99 2034,1124.5C 2091.03,1238.97 2156.36,1347.97 2230,1451.5C 2289.11,1533.65 2356.27,1609.15 2431.5,1678C 2493.96,1733.74 2562.96,1780.07 2638.5,1817C 2768.71,1878.09 2904.71,1895.76 3046.5,1870C 3120.87,1855.43 3192.54,1832.43 3261.5,1801C 3324.33,1771.92 3385,1739.26 3443.5,1703C 3541.38,1640.9 3637.72,1576.57 3732.5,1510C 3670.39,1529.55 3606.72,1541.88 3541.5,1547C 3433.54,1552.96 3329.21,1536.29 3228.5,1497C 3146.51,1464.52 3070.18,1422.52 2999.5,1371C 2899.72,1296.56 2810.22,1211.06 2731,1114.5C 2691.21,1065.58 2652.88,1015.58 2616,964.5C 2549.59,870.022 2483.93,775.022 2419,679.5C 2371.69,611.844 2321.69,546.177 2269,482.5C 2117.41,306.102 1940.91,160.936 1739.5,47C 1710.26,30.8839 1680.93,15.0505 1651.5,-0.5C 3404.83,-0.5 5158.17,-0.5 6911.5,-0.5C 6911.5,331.833 6911.5,664.167 6911.5,996.5C 6825.58,1059.13 6738.58,1120.3 6650.5,1180C 6562.54,1239 6469.87,1290.33 6372.5,1334C 6285.1,1371.93 6194.1,1396.6 6099.5,1408C 6014.9,1416.78 5931.23,1411.45 5848.5,1392C 5762.12,1370.76 5679.12,1340.43 5599.5,1301C 5563.85,1283.51 5528.52,1265.51 5493.5,1247C 5416.66,1204.75 5339.66,1162.75 5262.5,1121C 5199.73,1087.61 5135.06,1058.61 5068.5,1034C 4980.11,1001.2 4888.77,986.2 4794.5,989C 4721.76,994.065 4651.43,1009.73 4583.5,1036C 4529.46,1057.52 4477.13,1082.52 4426.5,1111C 4353.48,1153.5 4282.15,1198.5 4212.5,1246C 4271.08,1226.02 4331.08,1211.35 4392.5,1202C 4467.41,1191.41 4542.41,1190.74 4617.5,1200C 4685.55,1208.46 4752.22,1223.13 4817.5,1244C 4891.74,1267.96 4964.07,1296.62 5034.5,1330C 5145.84,1384.5 5255.5,1441.83 5363.5,1502C 5431.99,1538.58 5501.33,1573.58 5571.5,1607C 5632.5,1635 5694.83,1659.67 5758.5,1681C 5836.33,1706.1 5916,1722.1 5997.5,1729C 6070.17,1732.51 6142.5,1729.18 6214.5,1719C 6302.83,1705.84 6389.5,1685.84 6474.5,1659C 6584.95,1595.77 6698.95,1539.44 6816.5,1490C 6847.84,1477.28 6879.51,1465.44 6911.5,1454.5C 6911.5,1514.5 6911.5,1574.5 6911.5,1634.5C 6884.01,1641.61 6856.68,1649.44 6829.5,1658C 6723.1,1692.93 6616.43,1726.93 6509.5,1760C 6446.17,1795.67 6382.83,1831.33 6319.5,1867C 6260.31,1899.76 6200.64,1931.76 6140.5,1963C 6038.78,2015.79 5933.78,2060.79 5825.5,2098C 5746.01,2124.87 5664.68,2143.87 5581.5,2155C 5479.34,2167.45 5377.34,2166.11 5275.5,2151C 5178.37,2135.47 5082.71,2113.47 4988.5,2085C 4879.47,2051.66 4769.8,2020.66 4659.5,1992C 4575.64,1971.78 4490.64,1959.12 4404.5,1954C 4289.27,1949.93 4175.6,1961.26 4063.5,1988C 3953.94,2014.63 3847.61,2050.63 3744.5,2096C 3646.31,2139.43 3550.31,2187.1 3456.5,2239C 3416.5,2261.67 3376.5,2284.33 3336.5,2307C 3220.34,2375.24 3104.67,2444.24 2989.5,2514C 2864.87,2588.49 2737.21,2658.16 2606.5,2723C 2504.52,2772.49 2399.52,2814.49 2291.5,2849C 2175.57,2885.66 2056.9,2907.66 1935.5,2915C 1768.73,2924.09 1607.4,2898.76 1451.5,2839C 1346.76,2797.96 1246.76,2747.96 1151.5,2689C 1061.41,2632.23 974.075,2571.56 889.5,2507C 812.471,2447.48 735.804,2387.48 659.5,2327C 566.172,2253.17 469.839,2183.5 370.5,2118C 276.251,2056.37 176.585,2004.37 71.5,1962C 47.7414,1952.8 23.7414,1944.3 -0.5,1936.5C -0.5,1899.83 -0.5,1863.17 -0.5,1826.5C 94.3339,1854.25 185.334,1891.42 272.5,1938C 351.839,1980.99 428.506,2027.99 502.5,2079C 563.722,2122.11 624.055,2166.45 683.5,2212C 791.642,2297.81 900.642,2382.48 1010.5,2466C 1077.92,2515.74 1147.25,2562.74 1218.5,2607C 1311.21,2664.19 1408.88,2711.52 1511.5,2749C 1701.66,2814.93 1895.66,2828.93 2093.5,2791C 2192.1,2771.91 2288.1,2743.91 2381.5,2707C 2486.3,2665.26 2588.3,2617.6 2687.5,2564C 2766.64,2520.93 2844.98,2476.6 2922.5,2431C 3047.31,2355.54 3172.64,2280.87 3298.5,2207C 3408.21,2143.31 3520.54,2083.97 3635.5,2029C 3745.63,1977.11 3859.29,1934.45 3976.5,1901C 4126.66,1858.77 4279.66,1841.77 4435.5,1850C 4465.26,1852.14 4494.92,1855.14 4524.5,1859C 4596.68,1869.57 4668.02,1884.24 4738.5,1903C 4842.65,1932.37 4946.65,1962.37 5050.5,1993C 5121.36,2012.96 5193.03,2029.63 5265.5,2043C 5335.01,2054.92 5405.01,2059.92 5475.5,2058C 5576.56,2052.94 5675.22,2034.94 5771.5,2004C 5863.56,1974.3 5952.89,1937.97 6039.5,1895C 6080.97,1874.77 6121.97,1853.77 6162.5,1832C 6051.73,1842.09 5942.06,1835.09 5833.5,1811C 5757.89,1793.35 5684.22,1769.68 5612.5,1740C 5520.91,1701.04 5431.25,1658.04 5343.5,1611C 5251,1560.53 5158,1510.86 5064.5,1462C 4997.04,1427.43 4928.04,1396.43 4857.5,1369C 4771.03,1335.38 4681.7,1313.38 4589.5,1303C 4487.17,1293.19 4386.84,1303.19 4288.5,1333C 4216.59,1355.41 4147.26,1384.08 4080.5,1419C 4020.94,1450.61 3962.94,1484.61 3906.5,1521C 3801.49,1591.17 3696.82,1661.84 3592.5,1733C 3526.67,1776.45 3459,1817.12 3389.5,1855C 3300.08,1903.47 3206.08,1940.14 3107.5,1965C 2902.59,2012.16 2709.26,1983.16 2527.5,1878C 2458.64,1837.05 2394.97,1789.05 2336.5,1734C 2277.18,1677.04 2222.68,1616.21 2173,1551.5C 2084.23,1432.57 2006.56,1306.24 1940,1172.5C 1896.59,1082.68 1852.92,993.013 1809,903.5C 1758.32,799.121 1703.32,697.454 1644,598.5C 1590.41,510.555 1528.74,428.555 1459,352.5C 1259.04,141.141 1013.21,46.9745 721.5,70C 562.684,84.537 411.351,126.204 267.5,195C 207.898,223.788 150.565,256.121 95.5,292C 62.9192,313.446 30.9192,335.613 -0.5,358.5C -0.5,315.5 -0.5,272.5 -0.5,229.5C 21.3002,214.762 43.3002,200.262 65.5,186C 200.055,101.396 344.389,39.2288 498.5,-0.5 Z"/></g>
<g><path style="opacity:1" fill="#000000" d="M 1085.5,-0.5 C 1274.17,-0.5 1462.83,-0.5 1651.5,-0.5C 1680.93,15.0505 1710.26,30.8839 1739.5,47C 1940.91,160.936 2117.41,306.102 2269,482.5C 2321.69,546.177 2371.69,611.844 2419,679.5C 2483.93,775.022 2549.59,870.022 2616,964.5C 2652.88,1015.58 2691.21,1065.58 2731,1114.5C 2810.22,1211.06 2899.72,1296.56 2999.5,1371C 3070.18,1422.52 3146.51,1464.52 3228.5,1497C 3329.21,1536.29 3433.54,1552.96 3541.5,1547C 3606.72,1541.88 3670.39,1529.55 3732.5,1510C 3637.72,1576.57 3541.38,1640.9 3443.5,1703C 3385,1739.26 3324.33,1771.92 3261.5,1801C 3192.54,1832.43 3120.87,1855.43 3046.5,1870C 2904.71,1895.76 2768.71,1878.09 2638.5,1817C 2562.96,1780.07 2493.96,1733.74 2431.5,1678C 2356.27,1609.15 2289.11,1533.65 2230,1451.5C 2156.36,1347.97 2091.03,1238.97 2034,1124.5C 1975.38,1003.99 1916.38,883.66 1857,763.5C 1837.59,726.341 1817.92,689.341 1798,652.5C 1745.97,557.863 1687.64,467.529 1623,381.5C 1567.43,310.262 1505.27,245.095 1436.5,186C 1333.08,99.2763 1216.08,37.1096 1085.5,-0.5 Z"/></g>
<g><path style="opacity:1" fill="#000000" d="M 2971.5,59.5 C 3016.1,56.4489 3059.1,63.2822 3100.5,80C 3148.07,99.764 3191.4,126.097 3230.5,159C 3265.24,189.405 3298.41,221.572 3330,255.5C 3457.64,401.882 3578.31,553.549 3692,710.5C 3712.84,740.829 3732.17,772.162 3750,804.5C 3774.15,855.392 3760.65,892.559 3709.5,916C 3679.36,929.217 3650.36,927.217 3622.5,910C 3605.92,897.42 3589.92,884.087 3574.5,870C 3564.5,862.333 3554.5,854.667 3544.5,847C 3514.53,812.033 3482.2,779.366 3447.5,749C 3393.49,704.639 3333.49,669.972 3267.5,645C 3233.54,632.014 3199.21,620.014 3164.5,609C 3117.25,594.807 3070.25,579.807 3023.5,564C 2968.98,546.071 2917.65,521.738 2869.5,491C 2817.25,454.756 2779.08,407.256 2755,348.5C 2720.33,247.166 2747.17,166.666 2835.5,107C 2877.35,80.8851 2922.68,65.0517 2971.5,59.5 Z"/></g>
<g><path style="opacity:1" fill="#000000" d="M -0.5,1826.5 C -0.5,1619.5 -0.5,1412.5 -0.5,1205.5C 138.578,1232.23 266.578,1285.06 383.5,1364C 437.793,1401.61 489.793,1442.28 539.5,1486C 619.351,1559.51 697.684,1634.85 774.5,1712C 811.866,1747.03 849.533,1781.7 887.5,1816C 958.209,1877.7 1034.21,1932.04 1115.5,1979C 1161.37,2004.85 1209.37,2025.85 1259.5,2042C 1290.75,2051.81 1322.75,2057.48 1355.5,2059C 1509.68,2052.86 1658.68,2077.53 1802.5,2133C 1823.59,2143.7 1845.26,2153.03 1867.5,2161C 1894.57,2169.59 1921.57,2169.59 1948.5,2161C 1981.26,2145.35 2002.09,2119.85 2011,2084.5C 2021.16,2044.97 2017.83,2006.63 2001,1969.5C 1979.76,1925.59 1950.26,1888.09 1912.5,1857C 1876.85,1826.73 1837.52,1802.07 1794.5,1783C 1768.76,1773.53 1742.76,1764.87 1716.5,1757C 1664.99,1743.71 1613.99,1728.71 1563.5,1712C 1524.97,1698.24 1489.97,1678.58 1458.5,1653C 1427.56,1623.31 1403.4,1588.81 1386,1549.5C 1379.06,1533.95 1372.39,1518.28 1366,1502.5C 1346.43,1447.46 1325.1,1393.12 1302,1339.5C 1200.94,1125.44 1051.11,953.938 852.5,825C 590.258,658.504 305.925,603.004 -0.5,658.5C -0.5,558.5 -0.5,458.5 -0.5,358.5C 30.9192,335.613 62.9192,313.446 95.5,292C 150.565,256.121 207.898,223.788 267.5,195C 411.351,126.204 562.684,84.537 721.5,70C 1013.21,46.9745 1259.04,141.141 1459,352.5C 1528.74,428.555 1590.41,510.555 1644,598.5C 1703.32,697.454 1758.32,799.121 1809,903.5C 1852.92,993.013 1896.59,1082.68 1940,1172.5C 2006.56,1306.24 2084.23,1432.57 2173,1551.5C 2222.68,1616.21 2277.18,1677.04 2336.5,1734C 2394.97,1789.05 2458.64,1837.05 2527.5,1878C 2709.26,1983.16 2902.59,2012.16 3107.5,1965C 3206.08,1940.14 3300.08,1903.47 3389.5,1855C 3459,1817.12 3526.67,1776.45 3592.5,1733C 3696.82,1661.84 3801.49,1591.17 3906.5,1521C 3962.94,1484.61 4020.94,1450.61 4080.5,1419C 4147.26,1384.08 4216.59,1355.41 4288.5,1333C 4386.84,1303.19 4487.17,1293.19 4589.5,1303C 4681.7,1313.38 4771.03,1335.38 4857.5,1369C 4928.04,1396.43 4997.04,1427.43 5064.5,1462C 5158,1510.86 5251,1560.53 5343.5,1611C 5431.25,1658.04 5520.91,1701.04 5612.5,1740C 5684.22,1769.68 5757.89,1793.35 5833.5,1811C 5942.06,1835.09 6051.73,1842.09 6162.5,1832C 6121.97,1853.77 6080.97,1874.77 6039.5,1895C 5952.89,1937.97 5863.56,1974.3 5771.5,2004C 5675.22,2034.94 5576.56,2052.94 5475.5,2058C 5405.01,2059.92 5335.01,2054.92 5265.5,2043C 5193.03,2029.63 5121.36,2012.96 5050.5,1993C 4946.65,1962.37 4842.65,1932.37 4738.5,1903C 4668.02,1884.24 4596.68,1869.57 4524.5,1859C 4494.92,1855.14 4465.26,1852.14 4435.5,1850C 4279.66,1841.77 4126.66,1858.77 3976.5,1901C 3859.29,1934.45 3745.63,1977.11 3635.5,2029C 3520.54,2083.97 3408.21,2143.31 3298.5,2207C 3172.64,2280.87 3047.31,2355.54 2922.5,2431C 2844.98,2476.6 2766.64,2520.93 2687.5,2564C 2588.3,2617.6 2486.3,2665.26 2381.5,2707C 2288.1,2743.91 2192.1,2771.91 2093.5,2791C 1895.66,2828.93 1701.66,2814.93 1511.5,2749C 1408.88,2711.52 1311.21,2664.19 1218.5,2607C 1147.25,2562.74 1077.92,2515.74 1010.5,2466C 900.642,2382.48 791.642,2297.81 683.5,2212C 624.055,2166.45 563.722,2122.11 502.5,2079C 428.506,2027.99 351.839,1980.99 272.5,1938C 185.334,1891.42 94.3339,1854.25 -0.5,1826.5 Z"/></g>
<g><path style="opacity:1" fill="#fefefe" d="M -0.5,1205.5 C -0.5,1169.83 -0.5,1134.17 -0.5,1098.5C 135.57,1121.35 262.904,1167.85 381.5,1238C 466.553,1289.54 545.886,1348.88 619.5,1416C 693.714,1484.88 766.714,1555.21 838.5,1627C 890.709,1677.89 944.709,1726.55 1000.5,1773C 1065.04,1825.81 1134.71,1871.15 1209.5,1909C 1246.8,1927.48 1285.8,1941.15 1326.5,1950C 1337.42,1951.99 1348.42,1953.32 1359.5,1954C 1548.91,1946.22 1729.58,1981.88 1901.5,2061C 1903.77,2061.76 1905.94,2061.59 1908,2060.5C 1913.13,2045.24 1912.47,2030.24 1906,2015.5C 1898.75,1999.99 1889.75,1985.65 1879,1972.5C 1827.75,1914.61 1764.25,1876.77 1688.5,1859C 1632.14,1844.66 1576.47,1827.99 1521.5,1809C 1462.86,1788.29 1411.69,1756.12 1368,1712.5C 1329.44,1669.43 1299.44,1620.76 1278,1566.5C 1260.08,1521.07 1242.74,1475.4 1226,1429.5C 1127.66,1195.6 969.155,1014.44 750.5,886C 515.247,752.681 264.913,712.848 -0.5,766.5C -0.5,730.5 -0.5,694.5 -0.5,658.5C 305.925,603.004 590.258,658.504 852.5,825C 1051.11,953.938 1200.94,1125.44 1302,1339.5C 1325.1,1393.12 1346.43,1447.46 1366,1502.5C 1372.39,1518.28 1379.06,1533.95 1386,1549.5C 1403.4,1588.81 1427.56,1623.31 1458.5,1653C 1489.97,1678.58 1524.97,1698.24 1563.5,1712C 1613.99,1728.71 1664.99,1743.71 1716.5,1757C 1742.76,1764.87 1768.76,1773.53 1794.5,1783C 1837.52,1802.07 1876.85,1826.73 1912.5,1857C 1950.26,1888.09 1979.76,1925.59 2001,1969.5C 2017.83,2006.63 2021.16,2044.97 2011,2084.5C 2002.09,2119.85 1981.26,2145.35 1948.5,2161C 1921.57,2169.59 1894.57,2169.59 1867.5,2161C 1845.26,2153.03 1823.59,2143.7 1802.5,2133C 1658.68,2077.53 1509.68,2052.86 1355.5,2059C 1322.75,2057.48 1290.75,2051.81 1259.5,2042C 1209.37,2025.85 1161.37,2004.85 1115.5,1979C 1034.21,1932.04 958.209,1877.7 887.5,1816C 849.533,1781.7 811.866,1747.03 774.5,1712C 697.684,1634.85 619.351,1559.51 539.5,1486C 489.793,1442.28 437.793,1401.61 383.5,1364C 266.578,1285.06 138.578,1232.23 -0.5,1205.5 Z"/></g>
<g><path style="opacity:1" fill="#000000" d="M -0.5,1098.5 C -0.5,987.833 -0.5,877.167 -0.5,766.5C 264.913,712.848 515.247,752.681 750.5,886C 969.155,1014.44 1127.66,1195.6 1226,1429.5C 1242.74,1475.4 1260.08,1521.07 1278,1566.5C 1299.44,1620.76 1329.44,1669.43 1368,1712.5C 1411.69,1756.12 1462.86,1788.29 1521.5,1809C 1576.47,1827.99 1632.14,1844.66 1688.5,1859C 1764.25,1876.77 1827.75,1914.61 1879,1972.5C 1889.75,1985.65 1898.75,1999.99 1906,2015.5C 1912.47,2030.24 1913.13,2045.24 1908,2060.5C 1905.94,2061.59 1903.77,2061.76 1901.5,2061C 1729.58,1981.88 1548.91,1946.22 1359.5,1954C 1348.42,1953.32 1337.42,1951.99 1326.5,1950C 1285.8,1941.15 1246.8,1927.48 1209.5,1909C 1134.71,1871.15 1065.04,1825.81 1000.5,1773C 944.709,1726.55 890.709,1677.89 838.5,1627C 766.714,1555.21 693.714,1484.88 619.5,1416C 545.886,1348.88 466.553,1289.54 381.5,1238C 262.904,1167.85 135.57,1121.35 -0.5,1098.5 Z"/></g>
<g><path style="opacity:1" fill="#000000" d="M 6911.5,996.5 C 6911.5,1149.17 6911.5,1301.83 6911.5,1454.5C 6879.51,1465.44 6847.84,1477.28 6816.5,1490C 6698.95,1539.44 6584.95,1595.77 6474.5,1659C 6389.5,1685.84 6302.83,1705.84 6214.5,1719C 6142.5,1729.18 6070.17,1732.51 5997.5,1729C 5916,1722.1 5836.33,1706.1 5758.5,1681C 5694.83,1659.67 5632.5,1635 5571.5,1607C 5501.33,1573.58 5431.99,1538.58 5363.5,1502C 5255.5,1441.83 5145.84,1384.5 5034.5,1330C 4964.07,1296.62 4891.74,1267.96 4817.5,1244C 4752.22,1223.13 4685.55,1208.46 4617.5,1200C 4542.41,1190.74 4467.41,1191.41 4392.5,1202C 4331.08,1211.35 4271.08,1226.02 4212.5,1246C 4282.15,1198.5 4353.48,1153.5 4426.5,1111C 4477.13,1082.52 4529.46,1057.52 4583.5,1036C 4651.43,1009.73 4721.76,994.065 4794.5,989C 4888.77,986.2 4980.11,1001.2 5068.5,1034C 5135.06,1058.61 5199.73,1087.61 5262.5,1121C 5339.66,1162.75 5416.66,1204.75 5493.5,1247C 5528.52,1265.51 5563.85,1283.51 5599.5,1301C 5679.12,1340.43 5762.12,1370.76 5848.5,1392C 5931.23,1411.45 6014.9,1416.78 6099.5,1408C 6194.1,1396.6 6285.1,1371.93 6372.5,1334C 6469.87,1290.33 6562.54,1239 6650.5,1180C 6738.58,1120.3 6825.58,1059.13 6911.5,996.5 Z"/></g>
<g><path style="opacity:1" fill="#000000" d="M 6911.5,1634.5 C 6911.5,1845.83 6911.5,2057.17 6911.5,2268.5C 6882.1,2294.06 6853.44,2320.56 6825.5,2348C 6767.8,2405.69 6712.3,2465.19 6659,2526.5C 6599.37,2595.8 6539.37,2664.8 6479,2733.5C 6429.93,2788.23 6379.1,2841.4 6326.5,2893C 6257.99,2957.54 6184.33,3015.2 6105.5,3066C 6019.75,3121.16 5927.42,3161.82 5828.5,3188C 5699.69,3219.58 5573.69,3210.91 5450.5,3162C 5392.05,3137.61 5335.72,3109.28 5281.5,3077C 5257.67,3062.58 5234,3047.92 5210.5,3033C 5137.51,2984.5 5064.18,2936.5 4990.5,2889C 4929.82,2850.99 4866.49,2817.66 4800.5,2789C 4729.78,2759.24 4656.11,2741.9 4579.5,2737C 4496.07,2733.94 4415.73,2748.27 4338.5,2780C 4293.75,2797.87 4250.08,2818.21 4207.5,2841C 4152.76,2870.7 4097.43,2899.37 4041.5,2927C 3993.06,2950.59 3942.4,2967.59 3889.5,2978C 3832.64,2988.04 3777.31,2982.71 3723.5,2962C 3698.36,2951.76 3673.69,2940.43 3649.5,2928C 3606.8,2903.98 3563.47,2880.98 3519.5,2859C 3424.2,2814.17 3323.87,2794.84 3218.5,2801C 3152.03,2805.13 3087.03,2817.13 3023.5,2837C 2920.45,2870.2 2823.79,2916.2 2733.5,2975C 2670.41,3016.21 2609.07,3059.88 2549.5,3106C 2476.37,3163.39 2402.71,3220.06 2328.5,3276C 2233.76,3346.23 2132.43,3406.07 2024.5,3455.5C 1563.5,3455.5 1102.5,3455.5 641.5,3455.5C 540.953,3407.4 442.953,3354.9 347.5,3298C 267.761,3249.94 187.761,3202.27 107.5,3155C 71.6344,3134.57 35.6344,3114.4 -0.5,3094.5C -0.5,2708.5 -0.5,2322.5 -0.5,1936.5C 23.7414,1944.3 47.7414,1952.8 71.5,1962C 176.585,2004.37 276.251,2056.37 370.5,2118C 469.839,2183.5 566.172,2253.17 659.5,2327C 735.804,2387.48 812.471,2447.48 889.5,2507C 974.075,2571.56 1061.41,2632.23 1151.5,2689C 1246.76,2747.96 1346.76,2797.96 1451.5,2839C 1607.4,2898.76 1768.73,2924.09 1935.5,2915C 2056.9,2907.66 2175.57,2885.66 2291.5,2849C 2399.52,2814.49 2504.52,2772.49 2606.5,2723C 2737.21,2658.16 2864.87,2588.49 2989.5,2514C 3104.67,2444.24 3220.34,2375.24 3336.5,2307C 3376.5,2284.33 3416.5,2261.67 3456.5,2239C 3550.31,2187.1 3646.31,2139.43 3744.5,2096C 3847.61,2050.63 3953.94,2014.63 4063.5,1988C 4175.6,1961.26 4289.27,1949.93 4404.5,1954C 4490.64,1959.12 4575.64,1971.78 4659.5,1992C 4769.8,2020.66 4879.47,2051.66 4988.5,2085C 5082.71,2113.47 5178.37,2135.47 5275.5,2151C 5377.34,2166.11 5479.34,2167.45 5581.5,2155C 5664.68,2143.87 5746.01,2124.87 5825.5,2098C 5933.78,2060.79 6038.78,2015.79 6140.5,1963C 6200.64,1931.76 6260.31,1899.76 6319.5,1867C 6382.83,1831.33 6446.17,1795.67 6509.5,1760C 6616.43,1726.93 6723.1,1692.93 6829.5,1658C 6856.68,1649.44 6884.01,1641.61 6911.5,1634.5 Z"/></g>
<g><path style="opacity:1" fill="#fefefe" d="M 6911.5,2268.5 C 6911.5,2316.5 6911.5,2364.5 6911.5,2412.5C 6898.25,2424.24 6885.42,2436.58 6873,2449.5C 6843.33,2481.17 6813.67,2512.83 6784,2544.5C 6711.33,2627.83 6638.67,2711.17 6566,2794.5C 6512.3,2854.87 6456.47,2913.37 6398.5,2970C 6320.11,3043.75 6235.45,3109.09 6144.5,3166C 6052.9,3222.46 5954.9,3264.12 5850.5,3291C 5693.94,3328.64 5541.61,3315.98 5393.5,3253C 5342.28,3230.89 5292.61,3205.89 5244.5,3178C 5209.33,3156.58 5174.33,3134.92 5139.5,3113C 5072.77,3068.61 5005.77,3024.61 4938.5,2981C 4891.9,2951.53 4843.57,2924.86 4793.5,2901C 4734.31,2873.05 4672.31,2854.38 4607.5,2845C 4532.84,2836.71 4460.51,2846.04 4390.5,2873C 4350.22,2888.47 4310.89,2906.14 4272.5,2926C 4211.59,2959.29 4149.92,2991.29 4087.5,3022C 4030.46,3049.79 3970.8,3069.79 3908.5,3082C 3834.76,3095.07 3762.76,3088.74 3692.5,3063C 3660.67,3050.92 3629.67,3036.92 3599.5,3021C 3554.59,2995.71 3508.92,2971.71 3462.5,2949C 3388.81,2917.22 3311.81,2903.22 3231.5,2907C 3131.72,2913.44 3036.39,2937.44 2945.5,2979C 2893.82,3002.67 2844.15,3029.67 2796.5,3060C 2753.67,3087.83 2711.67,3116.83 2670.5,3147C 2599.6,3200.57 2529.26,3254.9 2459.5,3310C 2392.21,3361.97 2322.54,3410.47 2250.5,3455.5C 2175.17,3455.5 2099.83,3455.5 2024.5,3455.5C 2132.43,3406.07 2233.76,3346.23 2328.5,3276C 2402.71,3220.06 2476.37,3163.39 2549.5,3106C 2609.07,3059.88 2670.41,3016.21 2733.5,2975C 2823.79,2916.2 2920.45,2870.2 3023.5,2837C 3087.03,2817.13 3152.03,2805.13 3218.5,2801C 3323.87,2794.84 3424.2,2814.17 3519.5,2859C 3563.47,2880.98 3606.8,2903.98 3649.5,2928C 3673.69,2940.43 3698.36,2951.76 3723.5,2962C 3777.31,2982.71 3832.64,2988.04 3889.5,2978C 3942.4,2967.59 3993.06,2950.59 4041.5,2927C 4097.43,2899.37 4152.76,2870.7 4207.5,2841C 4250.08,2818.21 4293.75,2797.87 4338.5,2780C 4415.73,2748.27 4496.07,2733.94 4579.5,2737C 4656.11,2741.9 4729.78,2759.24 4800.5,2789C 4866.49,2817.66 4929.82,2850.99 4990.5,2889C 5064.18,2936.5 5137.51,2984.5 5210.5,3033C 5234,3047.92 5257.67,3062.58 5281.5,3077C 5335.72,3109.28 5392.05,3137.61 5450.5,3162C 5573.69,3210.91 5699.69,3219.58 5828.5,3188C 5927.42,3161.82 6019.75,3121.16 6105.5,3066C 6184.33,3015.2 6257.99,2957.54 6326.5,2893C 6379.1,2841.4 6429.93,2788.23 6479,2733.5C 6539.37,2664.8 6599.37,2595.8 6659,2526.5C 6712.3,2465.19 6767.8,2405.69 6825.5,2348C 6853.44,2320.56 6882.1,2294.06 6911.5,2268.5 Z"/></g>
<g><path style="opacity:1" fill="#000000" d="M 6911.5,2412.5 C 6911.5,2760.17 6911.5,3107.83 6911.5,3455.5C 6028.83,3455.5 5146.17,3455.5 4263.5,3455.5C 4128.2,3401.12 3987.53,3377.95 3841.5,3386C 3719.6,3393.35 3600.94,3416.51 3485.5,3455.5C 3073.83,3455.5 2662.17,3455.5 2250.5,3455.5C 2322.54,3410.47 2392.21,3361.97 2459.5,3310C 2529.26,3254.9 2599.6,3200.57 2670.5,3147C 2711.67,3116.83 2753.67,3087.83 2796.5,3060C 2844.15,3029.67 2893.82,3002.67 2945.5,2979C 3036.39,2937.44 3131.72,2913.44 3231.5,2907C 3311.81,2903.22 3388.81,2917.22 3462.5,2949C 3508.92,2971.71 3554.59,2995.71 3599.5,3021C 3629.67,3036.92 3660.67,3050.92 3692.5,3063C 3762.76,3088.74 3834.76,3095.07 3908.5,3082C 3970.8,3069.79 4030.46,3049.79 4087.5,3022C 4149.92,2991.29 4211.59,2959.29 4272.5,2926C 4310.89,2906.14 4350.22,2888.47 4390.5,2873C 4460.51,2846.04 4532.84,2836.71 4607.5,2845C 4672.31,2854.38 4734.31,2873.05 4793.5,2901C 4843.57,2924.86 4891.9,2951.53 4938.5,2981C 5005.77,3024.61 5072.77,3068.61 5139.5,3113C 5174.33,3134.92 5209.33,3156.58 5244.5,3178C 5292.61,3205.89 5342.28,3230.89 5393.5,3253C 5541.61,3315.98 5693.94,3328.64 5850.5,3291C 5954.9,3264.12 6052.9,3222.46 6144.5,3166C 6235.45,3109.09 6320.11,3043.75 6398.5,2970C 6456.47,2913.37 6512.3,2854.87 6566,2794.5C 6638.67,2711.17 6711.33,2627.83 6784,2544.5C 6813.67,2512.83 6843.33,2481.17 6873,2449.5C 6885.42,2436.58 6898.25,2424.24 6911.5,2412.5 Z"/></g>
<g><path style="opacity:1" fill="#fefefe" d="M -0.5,3094.5 C 35.6344,3114.4 71.6344,3134.57 107.5,3155C 187.761,3202.27 267.761,3249.94 347.5,3298C 442.953,3354.9 540.953,3407.4 641.5,3455.5C 564.167,3455.5 486.833,3455.5 409.5,3455.5C 306.74,3396.62 204.74,3336.45 103.5,3275C 68.9688,3254.9 34.3022,3235.07 -0.5,3215.5C -0.5,3175.17 -0.5,3134.83 -0.5,3094.5 Z"/></g>
<g><path style="opacity:1" fill="#000000" d="M -0.5,3215.5 C 34.3022,3235.07 68.9688,3254.9 103.5,3275C 204.74,3336.45 306.74,3396.62 409.5,3455.5C 272.833,3455.5 136.167,3455.5 -0.5,3455.5C -0.5,3375.5 -0.5,3295.5 -0.5,3215.5 Z"/></g>
<g><path style="opacity:1" fill="#fdfdfd" d="M 4263.5,3455.5 C 4004.17,3455.5 3744.83,3455.5 3485.5,3455.5C 3600.94,3416.51 3719.6,3393.35 3841.5,3386C 3987.53,3377.95 4128.2,3401.12 4263.5,3455.5 Z"/></g>
</svg>
