<?xml version="1.0" encoding="UTF-8"?>
<!DOCTYPE svg PUBLIC "-//W3C//DTD SVG 1.1//EN" "http://www.w3.org/Graphics/SVG/1.1/DTD/svg11.dtd">
<svg xmlns="http://www.w3.org/2000/svg" version="1.1" width="1080px" height="1080px" style="shape-rendering:geometricPrecision; text-rendering:geometricPrecision; image-rendering:optimizeQuality; fill-rule:evenodd; clip-rule:evenodd" xmlns:xlink="http://www.w3.org/1999/xlink">
<g><path style="opacity:1" fill="#ebecec" d="M -0.5,-0.5 C 359.5,-0.5 719.5,-0.5 1079.5,-0.5C 1079.5,202.833 1079.5,406.167 1079.5,609.5C 1063.84,617.661 1047.51,624.161 1030.5,629C 1005.88,634.473 981.548,633.473 957.5,626C 950.422,623.53 943.422,620.863 936.5,618C 907.626,602.73 878.626,587.73 849.5,573C 815.644,557.432 781.977,557.765 748.5,574C 731.17,582.994 714.504,592.994 698.5,604C 736.642,592.579 774.308,594.245 811.5,609C 823.068,613.45 834.402,618.45 845.5,624C 872.518,638.843 899.851,653.177 927.5,667C 977.542,690.092 1028.21,691.592 1079.5,671.5C 1079.5,678.167 1079.5,684.833 1079.5,691.5C 1064.73,699.389 1050.06,707.556 1035.5,716C 1009.33,730.422 981.992,742.088 953.5,751C 916.025,760.082 878.692,759.415 841.5,749C 816.561,741.848 791.561,734.848 766.5,728C 746.38,723.683 726.047,722.016 705.5,723C 664.098,728.245 625.098,740.912 588.5,761C 546.839,784.495 505.506,808.495 464.5,833C 430.109,852.695 393.775,867.695 355.5,878C 301.534,889.857 250.534,882.19 202.5,855C 187.298,846.456 172.631,837.123 158.5,827C 124.399,800.231 89.7324,774.231 54.5,749C 37.2022,738.018 18.8689,729.184 -0.5,722.5C -0.5,716.167 -0.5,709.833 -0.5,703.5C 24.1012,711.468 47.1012,722.634 68.5,737C 102.859,762.181 136.859,787.847 170.5,814C 197.681,834.592 227.681,849.925 260.5,860C 292.461,867.164 324.461,867.164 356.5,860C 389.674,850.246 421.341,836.913 451.5,820C 491.5,796.667 531.5,773.333 571.5,750C 601.442,733.799 632.776,721.133 665.5,712C 703.574,703.056 741.574,703.389 779.5,713C 812.025,723.382 845.025,732.048 878.5,739C 914.63,742.423 949.296,736.756 982.5,722C 995.653,715.923 1008.65,709.59 1021.5,703C 998.746,704.864 976.413,702.531 954.5,696C 939.83,691.164 925.497,685.498 911.5,679C 889.183,667.843 867.183,656.176 845.5,644C 826.188,634.011 806.188,625.677 785.5,619C 764.368,613.203 743.035,612.203 721.5,616C 699.468,621.348 678.801,630.014 659.5,642C 630.833,661 602.167,680 573.5,699C 495.911,746.368 427.078,736.202 367,668.5C 354.165,652.663 342.499,635.996 332,618.5C 315.426,586.353 299.093,554.02 283,521.5C 269.329,494.832 252.162,470.666 231.5,449C 194.311,415.109 150.645,402.109 100.5,410C 63.454,416.534 29.7873,430.701 -0.5,452.5C -0.5,445.5 -0.5,438.5 -0.5,431.5C 51.1989,396.492 107.866,384.325 169.5,395C 204.939,404.63 234.439,423.463 258,451.5C 274.325,472.135 288.658,494.135 301,517.5C 315.473,547.779 330.473,577.779 346,607.5C 361.041,634.881 380.207,659.048 403.5,680C 445.101,714.069 490.435,719.736 539.5,697C 566.158,683.315 591.491,667.648 615.5,650C 606.365,652.292 597.032,653.959 587.5,655C 564.315,656.683 542.315,652.35 521.5,642C 494.178,627.694 470.678,608.527 451,584.5C 426.51,551.52 402.51,518.186 379,484.5C 319.862,414.833 244.695,373.666 153.5,361C 101.226,354.157 49.8924,358.324 -0.5,373.5C -0.5,248.833 -0.5,124.167 -0.5,-0.5 Z"/></g>
<g><path style="opacity:1" fill="#010101" d="M -0.5,431.5 C -0.5,412.167 -0.5,392.833 -0.5,373.5C 49.8924,358.324 101.226,354.157 153.5,361C 244.695,373.666 319.862,414.833 379,484.5C 402.51,518.186 426.51,551.52 451,584.5C 470.678,608.527 494.178,627.694 521.5,642C 542.315,652.35 564.315,656.683 587.5,655C 597.032,653.959 606.365,652.292 615.5,650C 591.491,667.648 566.158,683.315 539.5,697C 490.435,719.736 445.101,714.069 403.5,680C 380.207,659.048 361.041,634.881 346,607.5C 330.473,577.779 315.473,547.779 301,517.5C 288.658,494.135 274.325,472.135 258,451.5C 234.439,423.463 204.939,404.63 169.5,395C 107.866,384.325 51.1989,396.492 -0.5,431.5 Z"/></g>
<g><path style="opacity:1" fill="#010101" d="M 487.5,406.5 C 505.842,406.668 521.842,412.835 535.5,425C 567.977,458.169 596.477,494.336 621,533.5C 622.388,544.296 617.555,550.296 606.5,551.5C 603.298,550.901 600.298,549.734 597.5,548C 586.845,539.344 576.845,530.011 567.5,520C 557.054,512.442 545.72,506.442 533.5,502C 515.01,497.059 497.01,490.725 479.5,483C 462.692,473.703 453.358,459.537 451.5,440.5C 452.581,430.259 457.248,422.093 465.5,416C 472.336,411.409 479.669,408.242 487.5,406.5 Z"/></g>
<g><path style="opacity:1" fill="#000000" d="M -0.5,703.5 C -0.5,668.833 -0.5,634.167 -0.5,599.5C 22.9391,604.389 44.2724,613.889 63.5,628C 69.8333,633 76.1667,638 82.5,643C 104.833,664 127.167,685 149.5,706C 163.324,717.086 178.324,726.42 194.5,734C 209.258,739.803 224.592,742.137 240.5,741C 248.582,741.347 256.582,742.347 264.5,744C 280.763,748.145 296.763,752.978 312.5,758.5C 325.348,756.971 331.348,749.637 330.5,736.5C 330.77,730.143 328.936,724.476 325,719.5C 317.259,708.754 307.425,700.587 295.5,695C 281.484,690.664 267.484,686.33 253.5,682C 241.838,677.337 233.005,669.504 227,658.5C 214.74,617.783 193.24,582.949 162.5,554C 115.482,513.72 61.1489,497.554 -0.5,505.5C -0.5,487.833 -0.5,470.167 -0.5,452.5C 29.7873,430.701 63.454,416.534 100.5,410C 150.645,402.109 194.311,415.109 231.5,449C 252.162,470.666 269.329,494.832 283,521.5C 299.093,554.02 315.426,586.353 332,618.5C 342.499,635.996 354.165,652.663 367,668.5C 427.078,736.202 495.911,746.368 573.5,699C 602.167,680 630.833,661 659.5,642C 678.801,630.014 699.468,621.348 721.5,616C 743.035,612.203 764.368,613.203 785.5,619C 806.188,625.677 826.188,634.011 845.5,644C 867.183,656.176 889.183,667.843 911.5,679C 925.497,685.498 939.83,691.164 954.5,696C 976.413,702.531 998.746,704.864 1021.5,703C 1008.65,709.59 995.653,715.923 982.5,722C 949.296,736.756 914.63,742.423 878.5,739C 845.025,732.048 812.025,723.382 779.5,713C 741.574,703.389 703.574,703.056 665.5,712C 632.776,721.133 601.442,733.799 571.5,750C 531.5,773.333 491.5,796.667 451.5,820C 421.341,836.913 389.674,850.246 356.5,860C 324.461,867.164 292.461,867.164 260.5,860C 227.681,849.925 197.681,834.592 170.5,814C 136.859,787.847 102.859,762.181 68.5,737C 47.1012,722.634 24.1012,711.468 -0.5,703.5 Z"/></g>
<g><path style="opacity:1" fill="#e8e9e9" d="M -0.5,599.5 C -0.5,593.5 -0.5,587.5 -0.5,581.5C 26.9142,586.876 51.9142,597.71 74.5,614C 84.7921,621.957 94.7921,630.29 104.5,639C 121.226,656.395 138.56,673.062 156.5,689C 173.185,703.847 192.185,714.847 213.5,722C 232.652,721.936 251.652,723.602 270.5,727C 285.104,730.814 299.438,735.314 313.5,740.5C 313.71,735.584 312.21,731.251 309,727.5C 299.615,716.387 287.782,709.22 273.5,706C 251.427,703.215 232.927,693.715 218,677.5C 214.493,672.49 211.493,667.157 209,661.5C 192.601,605.447 158.435,564.281 106.5,538C 72.3203,522.379 36.6536,517.546 -0.5,523.5C -0.5,517.5 -0.5,511.5 -0.5,505.5C 61.1489,497.554 115.482,513.72 162.5,554C 193.24,582.949 214.74,617.783 227,658.5C 233.005,669.504 241.838,677.337 253.5,682C 267.484,686.33 281.484,690.664 295.5,695C 307.425,700.587 317.259,708.754 325,719.5C 328.936,724.476 330.77,730.143 330.5,736.5C 331.348,749.637 325.348,756.971 312.5,758.5C 296.763,752.978 280.763,748.145 264.5,744C 256.582,742.347 248.582,741.347 240.5,741C 224.592,742.137 209.258,739.803 194.5,734C 178.324,726.42 163.324,717.086 149.5,706C 127.167,685 104.833,664 82.5,643C 76.1667,638 69.8333,633 63.5,628C 44.2724,613.889 22.9391,604.389 -0.5,599.5 Z"/></g>
<g><path style="opacity:1" fill="#010101" d="M -0.5,581.5 C -0.5,562.167 -0.5,542.833 -0.5,523.5C 36.6536,517.546 72.3203,522.379 106.5,538C 158.435,564.281 192.601,605.447 209,661.5C 211.493,667.157 214.493,672.49 218,677.5C 232.927,693.715 251.427,703.215 273.5,706C 287.782,709.22 299.615,716.387 309,727.5C 312.21,731.251 313.71,735.584 313.5,740.5C 299.438,735.314 285.104,730.814 270.5,727C 251.652,723.602 232.652,721.936 213.5,722C 192.185,714.847 173.185,703.847 156.5,689C 138.56,673.062 121.226,656.395 104.5,639C 94.7921,630.29 84.7921,621.957 74.5,614C 51.9142,597.71 26.9142,586.876 -0.5,581.5 Z"/></g>
<g><path style="opacity:1" fill="#010101" d="M 1079.5,609.5 C 1079.5,630.167 1079.5,650.833 1079.5,671.5C 1028.21,691.592 977.542,690.092 927.5,667C 899.851,653.177 872.518,638.843 845.5,624C 834.402,618.45 823.068,613.45 811.5,609C 774.308,594.245 736.642,592.579 698.5,604C 714.504,592.994 731.17,582.994 748.5,574C 781.977,557.765 815.644,557.432 849.5,573C 878.626,587.73 907.626,602.73 936.5,618C 943.422,620.863 950.422,623.53 957.5,626C 981.548,633.473 1005.88,634.473 1030.5,629C 1047.51,624.161 1063.84,617.661 1079.5,609.5 Z"/></g>
<g><path style="opacity:1" fill="#000000" d="M 1079.5,691.5 C 1079.5,743.833 1079.5,796.167 1079.5,848.5C 1064.33,866.17 1047.66,882.337 1029.5,897C 1008.78,913.359 985.445,924.359 959.5,930C 937.945,934.021 917.279,931.354 897.5,922C 888.515,917.842 879.848,913.175 871.5,908C 852.833,896 834.167,884 815.5,872C 799.231,862.8 781.898,856.8 763.5,854C 746.445,852.231 730.112,854.898 714.5,862C 697.167,870.667 679.833,879.333 662.5,888C 647.156,895.177 631.49,896.177 615.5,891C 602.864,884.682 590.198,878.349 577.5,872C 564.107,866.205 550.107,863.705 535.5,864.5C 509.778,865.127 485.778,871.961 463.5,885C 453.833,891.333 444.167,897.667 434.5,904C 414.117,920.051 393.45,935.717 372.5,951C 293.068,1001.42 208.734,1011.42 119.5,981C 104.108,974.804 89.1083,967.804 74.5,960C 49.7724,944.972 24.7724,930.472 -0.5,916.5C -0.5,851.833 -0.5,787.167 -0.5,722.5C 18.8689,729.184 37.2022,738.018 54.5,749C 89.7324,774.231 124.399,800.231 158.5,827C 172.631,837.123 187.298,846.456 202.5,855C 250.534,882.19 301.534,889.857 355.5,878C 393.775,867.695 430.109,852.695 464.5,833C 505.506,808.495 546.839,784.495 588.5,761C 625.098,740.912 664.098,728.245 705.5,723C 726.047,722.016 746.38,723.683 766.5,728C 791.561,734.848 816.561,741.848 841.5,749C 878.692,759.415 916.025,760.082 953.5,751C 981.992,742.088 1009.33,730.422 1035.5,716C 1050.06,707.556 1064.73,699.389 1079.5,691.5 Z"/></g>
<g><path style="opacity:1" fill="#e8e9e9" d="M 1079.5,848.5 C 1079.5,857.5 1079.5,866.5 1079.5,875.5C 1058.92,897.593 1035.59,916.093 1009.5,931C 987.631,942.771 964.298,948.938 939.5,949.5C 922.047,949.137 905.38,945.304 889.5,938C 877.844,932.174 866.51,925.84 855.5,919C 839.011,907.253 822.011,896.253 804.5,886C 775.646,868.674 745.979,867.007 715.5,881C 699.779,889.527 683.779,897.527 667.5,905C 656.958,908.844 646.125,911.344 635,912.5C 627.353,912.265 619.853,911.098 612.5,909C 598.075,902.288 583.742,895.288 569.5,888C 544.631,880.229 519.965,880.896 495.5,890C 475.329,898.202 456.662,908.869 439.5,922C 415.073,942.379 389.407,961.046 362.5,978C 287.15,1018.16 208.484,1026.16 126.5,1002C 111.378,997.106 96.7116,991.106 82.5,984C 54.4801,968.661 26.8135,952.827 -0.5,936.5C -0.5,929.833 -0.5,923.167 -0.5,916.5C 24.7724,930.472 49.7724,944.972 74.5,960C 89.1083,967.804 104.108,974.804 119.5,981C 208.734,1011.42 293.068,1001.42 372.5,951C 393.45,935.717 414.117,920.051 434.5,904C 444.167,897.667 453.833,891.333 463.5,885C 485.778,871.961 509.778,865.127 535.5,864.5C 550.107,863.705 564.107,866.205 577.5,872C 590.198,878.349 602.864,884.682 615.5,891C 631.49,896.177 647.156,895.177 662.5,888C 679.833,879.333 697.167,870.667 714.5,862C 730.112,854.898 746.445,852.231 763.5,854C 781.898,856.8 799.231,862.8 815.5,872C 834.167,884 852.833,896 871.5,908C 879.848,913.175 888.515,917.842 897.5,922C 917.279,931.354 937.945,934.021 959.5,930C 985.445,924.359 1008.78,913.359 1029.5,897C 1047.66,882.337 1064.33,866.17 1079.5,848.5 Z"/></g>
<g><path style="opacity:1" fill="#000000" d="M 1079.5,875.5 C 1079.5,943.5 1079.5,1011.5 1079.5,1079.5C 999.5,1079.5 919.5,1079.5 839.5,1079.5C 813.764,1055.12 787.764,1030.95 761.5,1007C 737.321,986.41 709.655,972.41 678.5,965C 653.115,960.162 627.781,960.496 602.5,966C 580.071,971.143 558.405,978.476 537.5,988C 482.971,1014.74 430.971,1045.24 381.5,1079.5C 254.167,1079.5 126.833,1079.5 -0.5,1079.5C -0.5,1031.83 -0.5,984.167 -0.5,936.5C 26.8135,952.827 54.4801,968.661 82.5,984C 96.7116,991.106 111.378,997.106 126.5,1002C 208.484,1026.16 287.15,1018.16 362.5,978C 389.407,961.046 415.073,942.379 439.5,922C 456.662,908.869 475.329,898.202 495.5,890C 519.965,880.896 544.631,880.229 569.5,888C 583.742,895.288 598.075,902.288 612.5,909C 619.853,911.098 627.353,912.265 635,912.5C 646.125,911.344 656.958,908.844 667.5,905C 683.779,897.527 699.779,889.527 715.5,881C 745.979,867.007 775.646,868.674 804.5,886C 822.011,896.253 839.011,907.253 855.5,919C 866.51,925.84 877.844,932.174 889.5,938C 905.38,945.304 922.047,949.137 939.5,949.5C 964.298,948.938 987.631,942.771 1009.5,931C 1035.59,916.093 1058.92,897.593 1079.5,875.5 Z"/></g>
<g><path style="opacity:1" fill="#e7e8e8" d="M 839.5,1079.5 C 830.833,1079.5 822.167,1079.5 813.5,1079.5C 789.556,1055.05 764.222,1032.22 737.5,1011C 691.46,978.659 641.46,970.993 587.5,988C 551.732,999.885 517.732,1015.55 485.5,1035C 460.933,1049.11 436.933,1063.94 413.5,1079.5C 402.833,1079.5 392.167,1079.5 381.5,1079.5C 430.971,1045.24 482.971,1014.74 537.5,988C 558.405,978.476 580.071,971.143 602.5,966C 627.781,960.496 653.115,960.162 678.5,965C 709.655,972.41 737.321,986.41 761.5,1007C 787.764,1030.95 813.764,1055.12 839.5,1079.5 Z"/></g>
<g><path style="opacity:1" fill="#000000" d="M 813.5,1079.5 C 796.5,1079.5 779.5,1079.5 762.5,1079.5C 709.425,1042.76 653.759,1038.59 595.5,1067C 587.616,1070.43 580.283,1074.6 573.5,1079.5C 520.167,1079.5 466.833,1079.5 413.5,1079.5C 436.933,1063.94 460.933,1049.11 485.5,1035C 517.732,1015.55 551.732,999.885 587.5,988C 641.46,970.993 691.46,978.659 737.5,1011C 764.222,1032.22 789.556,1055.05 813.5,1079.5 Z"/></g>
<g><path style="opacity:1" fill="#e7e8e8" d="M 762.5,1079.5 C 750.5,1079.5 738.5,1079.5 726.5,1079.5C 697.405,1065.36 667.071,1062.53 635.5,1071C 627.792,1073.17 620.459,1076.01 613.5,1079.5C 600.167,1079.5 586.833,1079.5 573.5,1079.5C 580.283,1074.6 587.616,1070.43 595.5,1067C 653.759,1038.59 709.425,1042.76 762.5,1079.5 Z"/></g>
<g><path style="opacity:1" fill="#030303" d="M 726.5,1079.5 C 688.833,1079.5 651.167,1079.5 613.5,1079.5C 620.459,1076.01 627.792,1073.17 635.5,1071C 667.071,1062.53 697.405,1065.36 726.5,1079.5 Z"/></g>
</svg>
