<svg width="236" height="129" viewBox="0 0 236 129" fill="none" xmlns="http://www.w3.org/2000/svg">
<g clip-path="url(#clip0_4121_344)">
<path d="M119.203 78.6155C119.203 78.6155 103.322 94.4234 81.0809 88.7717C81.0809 88.7717 92.3875 84.9435 97.2277 79.8196C97.2277 79.8196 85.944 85.4798 70.3263 74.8833C54.7087 64.3079 46.2105 55.4748 39.1509 61.05C39.1509 61.05 73.1936 38.2582 96.1429 49.4442C96.1429 49.4442 81.8791 40.6414 72.5539 41.3498C72.5539 41.3498 100.269 34.7554 119.003 47.4188L119.213 78.605L119.203 78.6155Z" fill="#F4A019" stroke="black" stroke-width="1.33154" stroke-miterlimit="10"/>
<path d="M119.036 52.6378C119.036 52.6378 113.815 46.311 103.764 48.1433C103.764 48.1433 107.178 49.1512 109.282 53.5787C109.282 53.5787 90.6187 51.3108 80.3014 58.7555C80.3014 58.7555 95.6924 59.1249 97.9678 65.4567C100.233 71.8199 108.862 78.4116 119.194 74.6725L119.046 52.6482L119.036 52.6378Z" fill="white" stroke="black" stroke-width="1.33154" stroke-miterlimit="10"/>
<path d="M165.999 100.722C185.202 89.636 191.877 65.2477 180.909 46.2504C173.5 33.4186 159.937 26.3281 145.997 26.4938L139.785 26.3904C152.776 27.0905 165.114 34.0725 172.053 46.0914C183.021 65.0887 176.347 89.477 157.144 100.563C150.964 104.131 144.24 105.887 137.597 105.993L148.055 106.095C154.173 105.752 160.316 104.004 165.999 100.722Z" fill="white" stroke="black" stroke-width="1.34013" stroke-linejoin="round"/>
<path d="M168.397 90.7993H177.705" stroke="black" stroke-width="1.34013" stroke-linecap="round" stroke-linejoin="round"/>
<path d="M176.515 73.6616H185.436" stroke="black" stroke-width="1.34013" stroke-linecap="round" stroke-linejoin="round"/>
<path d="M176.175 55.5509L184.577 55.5508" stroke="black" stroke-width="1.34013" stroke-linecap="round" stroke-linejoin="round"/>
<path d="M166.741 38.7822H175.128" stroke="black" stroke-width="1.34013" stroke-linecap="round" stroke-linejoin="round"/>
<path d="M172.308 45.9262C183.269 64.9114 176.605 89.2932 157.403 100.38C138.201 111.466 113.753 105.047 102.791 86.0615C91.8305 67.0763 98.4947 42.694 117.697 31.6077C136.899 20.5212 161.346 26.941 172.308 45.9262Z" fill="white" stroke="black" stroke-width="1.34013"/>
<path d="M118.227 84.7716L122.374 57.9419L126.519 76.4784L144.933 80.5009L118.227 84.7716Z" stroke="black" stroke-width="1.34013"/>
<path d="M126.642 76.3579L118.471 84.529" stroke="black" stroke-width="1.34013"/>
<path d="M155.286 47.7136L130.529 72.4709" stroke="black" stroke-width="1.34013"/>
<path d="M126.14 54.4233L141.993 61.0068L148.33 76.6125" stroke="black" stroke-width="1.34013"/>
<path d="M126.141 54.4237L155.531 47.47L148.454 76.7362L130.285 72.7151L126.141 54.4237Z" stroke="black" stroke-width="1.34013"/>
<path d="M17.7305 42.3428H38.7259" stroke="black" stroke-width="1.34013" stroke-linecap="round" stroke-dasharray="0.86 3.44"/>
<path d="M27.1801 78.4233H45.5984" stroke="black" stroke-width="1.34013" stroke-linecap="round" stroke-dasharray="0.86 3.44"/>
<path d="M70.2788 100.801L66.0868 94.8178L72.4001 90.3301L76.5922 96.3134L70.2788 100.801Z" stroke="black" stroke-width="1.34013"/>
<path fill-rule="evenodd" clip-rule="evenodd" d="M56.2084 17.8594C56.2084 25.0361 49.4289 30.8539 41.0661 30.8539C40.9871 30.8539 40.9082 30.8534 40.8295 30.8523V30.8561C40.9082 30.8551 40.9871 30.8539 41.0661 30.8539C49.4289 30.8539 56.2084 36.6725 56.2084 43.8491C56.2084 43.9167 56.2078 43.9842 56.2066 44.0516H56.2103C56.2091 43.9842 56.2084 43.9167 56.2084 43.8491C56.2084 36.6724 62.9878 30.8546 71.3506 30.8546C71.4295 30.8546 71.5084 30.8551 71.587 30.8561V30.8523C71.5084 30.8534 71.4295 30.8546 71.3506 30.8546C62.9878 30.8546 56.2084 25.0361 56.2084 17.8594C56.2084 17.7916 56.2091 17.724 56.2103 17.6565H56.2066C56.2078 17.724 56.2084 17.7916 56.2084 17.8594Z" fill="#F4A019"/>
<mask id="mask0_4121_344" style="mask-type:luminance" maskUnits="userSpaceOnUse" x="40" y="17" width="32" height="28">
<path fill-rule="evenodd" clip-rule="evenodd" d="M56.2084 17.8594C56.2084 25.0361 49.4289 30.8539 41.0661 30.8539C40.9871 30.8539 40.9082 30.8534 40.8295 30.8523V30.8561C40.9082 30.8551 40.9871 30.8539 41.0661 30.8539C49.4289 30.8539 56.2084 36.6725 56.2084 43.8491C56.2084 43.9167 56.2078 43.9842 56.2066 44.0516H56.2103C56.2091 43.9842 56.2084 43.9167 56.2084 43.8491C56.2084 36.6724 62.9878 30.8546 71.3506 30.8546C71.4295 30.8546 71.5084 30.8551 71.587 30.8561V30.8523C71.5084 30.8534 71.4295 30.8546 71.3506 30.8546C62.9878 30.8546 56.2084 25.0361 56.2084 17.8594C56.2084 17.7916 56.2091 17.724 56.2103 17.6565H56.2066C56.2078 17.724 56.2084 17.7916 56.2084 17.8594Z" fill="white"/>
</mask>
<g mask="url(#mask0_4121_344)">
<path d="M40.8295 30.8524L40.8471 29.5124L39.4893 29.4946V30.8524H40.8295ZM40.8295 30.8562H39.4893V32.2141L40.8471 32.1962L40.8295 30.8562ZM56.2065 44.0516L54.8666 44.0278L54.8424 45.3917H56.2065V44.0516ZM56.2102 44.0516V45.3917H57.5744L57.5501 44.0278L56.2102 44.0516ZM71.587 30.8562L71.5694 32.1961L72.9271 32.214V30.8562H71.587ZM71.587 30.8524H72.9271V29.4946L71.5694 29.5124L71.587 30.8524ZM56.2102 17.6565L57.5502 17.6804L57.5745 16.3164H56.2102V17.6565ZM56.2065 17.6565V16.3164H54.8423L54.8666 17.6804L56.2065 17.6565ZM41.0661 32.1941C49.9694 32.1941 57.5485 25.9612 57.5485 17.8595H54.8682C54.8682 24.111 48.8885 29.5138 41.0661 29.5138V32.1941ZM40.8118 32.1924C40.8965 32.1936 40.9812 32.1941 41.0661 32.1941V29.5138C40.993 29.5138 40.92 29.5134 40.8471 29.5124L40.8118 32.1924ZM42.1696 30.8562V30.8524H39.4893V30.8562H42.1696ZM41.0661 29.5138C40.9812 29.5138 40.8965 29.5151 40.8118 29.5162L40.8471 32.1962C40.92 32.1953 40.993 32.1941 41.0661 32.1941V29.5138ZM57.5485 43.8491C57.5485 35.7473 49.9694 29.5138 41.0661 29.5138V32.1941C48.8885 32.1941 54.8682 37.5976 54.8682 43.8491H57.5485ZM57.5464 44.0755C57.5478 44.0001 57.5485 43.9247 57.5485 43.8491H54.8682C54.8682 43.9088 54.8677 43.9684 54.8666 44.0278L57.5464 44.0755ZM56.2102 42.7115H56.2065V45.3917H56.2102V42.7115ZM57.5501 44.0278C57.5491 43.9684 57.5485 43.9087 57.5485 43.8491H54.8682C54.8682 43.9247 54.869 44.0001 54.8703 44.0755L57.5501 44.0278ZM57.5485 43.8491C57.5485 37.5976 63.5283 32.1948 71.3506 32.1948V29.5145C62.4474 29.5145 54.8682 35.7473 54.8682 43.8491H57.5485ZM71.3506 32.1948C71.4237 32.1948 71.4966 32.1952 71.5694 32.1961L71.6046 29.5161C71.5201 29.515 71.4355 29.5145 71.3506 29.5145V32.1948ZM70.2469 30.8524V30.8562H72.9271V30.8524H70.2469ZM71.3506 32.1948C71.4355 32.1948 71.5201 32.1936 71.6046 32.1924L71.5694 29.5124C71.4966 29.5134 71.4237 29.5145 71.3506 29.5145V32.1948ZM54.8682 17.8595C54.8682 25.9612 62.4474 32.1948 71.3506 32.1948V29.5145C63.5283 29.5145 57.5485 24.111 57.5485 17.8595H54.8682ZM54.8703 17.6327C54.869 17.7082 54.8682 17.7838 54.8682 17.8595H57.5485C57.5485 17.7997 57.5491 17.74 57.5502 17.6804L54.8703 17.6327ZM56.2065 18.9967H56.2102V16.3164H56.2065V18.9967ZM57.5485 17.8595C57.5485 17.7838 57.5478 17.7082 57.5464 17.6327L54.8666 17.6804C54.8677 17.74 54.8682 17.7997 54.8682 17.8595H57.5485Z" fill="black"/>
</g>
<path fill-rule="evenodd" clip-rule="evenodd" d="M190.63 47.3916C195.665 47.3916 199.748 43.7406 199.764 39.231C199.782 43.7406 203.865 47.3916 208.9 47.3916C208.947 47.3916 208.995 47.3913 209.042 47.3907V47.393C208.995 47.3923 208.947 47.3916 208.9 47.3916C203.865 47.3916 199.782 51.0431 199.764 55.5527C199.748 51.0431 195.665 47.3916 190.63 47.3916C190.583 47.3916 190.535 47.3923 190.488 47.393V47.3907C190.535 47.3913 190.583 47.3916 190.63 47.3916ZM199.764 55.7097H199.766C199.765 55.6763 199.765 55.6428 199.764 55.6093C199.764 55.6428 199.764 55.6763 199.764 55.7097ZM199.766 39.0759H199.764C199.764 39.1087 199.764 39.1416 199.764 39.1744C199.765 39.1416 199.765 39.1087 199.766 39.0759Z" fill="black"/>
<path d="M28.2282 67.2563C30.2303 67.2563 31.8534 65.6333 31.8534 63.6311C31.8534 61.6289 30.2303 60.0059 28.2282 60.0059C26.226 60.0059 24.6029 61.6289 24.6029 63.6311C24.6029 65.6333 26.226 67.2563 28.2282 67.2563Z" fill="black" stroke="black" stroke-width="1.34013"/>
</g>
<defs>
<clipPath id="clip0_4121_344">
<rect width="236" height="128" fill="white" transform="translate(0 0.919922)"/>
</clipPath>
</defs>
</svg>
